<?xml version="1.0" encoding="utf-8" standalone="no"?>
<!DOCTYPE svg PUBLIC "-//W3C//DTD SVG 1.1//EN"
  "http://www.w3.org/Graphics/SVG/1.1/DTD/svg11.dtd">
<svg xmlns:xlink="http://www.w3.org/1999/xlink" width="612pt" height="792pt" viewBox="0 0 612 792" xmlns="http://www.w3.org/2000/svg" version="1.1">
 <metadata>
  <rdf:RDF xmlns:dc="http://purl.org/dc/elements/1.1/" xmlns:cc="http://creativecommons.org/ns#" xmlns:rdf="http://www.w3.org/1999/02/22-rdf-syntax-ns#">
   <cc:Work>
    <dc:type rdf:resource="http://purl.org/dc/dcmitype/StillImage"/>
    <dc:date>2023-04-23T14:51:56.687898</dc:date>
    <dc:format>image/svg+xml</dc:format>
    <dc:creator>
     <cc:Agent>
      <dc:title>Matplotlib v3.5.3, https://matplotlib.org/</dc:title>
     </cc:Agent>
    </dc:creator>
   </cc:Work>
  </rdf:RDF>
 </metadata>
 <defs>
  <style type="text/css">*{stroke-linejoin: round; stroke-linecap: butt}</style>
 </defs>
 <g id="figure_1">
  <g id="patch_1">
   <path d="M 0 792 
L 612 792 
L 612 0 
L 0 0 
z
" style="fill: #ffffff"/>
  </g>
  <g id="axes_1">
   <g id="patch_2">
    <path d="M 183.6 475.2 
L 428.4 475.2 
L 428.4 158.4 
L 183.6 158.4 
z
" style="fill: #ffffff"/>
   </g>
   <g id="patch_3">
    <path d="M 183.6 469.992329 
L 368.171429 469.992329 
L 368.171429 463.048767 
L 183.6 463.048767 
z
" clip-path="url(#pd88fa4dce0)" style="fill: #1f77b4"/>
   </g>
   <g id="patch_4">
    <path d="M 183.6 461.312877 
L 372.587013 461.312877 
L 372.587013 454.369315 
L 183.6 454.369315 
z
" clip-path="url(#pd88fa4dce0)" style="fill: #1f77b4"/>
   </g>
   <g id="patch_5">
    <path d="M 183.6 452.633425 
L 371.703896 452.633425 
L 371.703896 445.689863 
L 183.6 445.689863 
z
" clip-path="url(#pd88fa4dce0)" style="fill: #1f77b4"/>
   </g>
   <g id="patch_6">
    <path d="M 183.6 443.953973 
L 376.119481 443.953973 
L 376.119481 437.010411 
L 183.6 437.010411 
z
" clip-path="url(#pd88fa4dce0)" style="fill: #1f77b4"/>
   </g>
   <g id="patch_7">
    <path d="M 183.6 435.274521 
L 373.47013 435.274521 
L 373.47013 428.330959 
L 183.6 428.330959 
z
" clip-path="url(#pd88fa4dce0)" style="fill: #1f77b4"/>
   </g>
   <g id="patch_8">
    <path d="M 183.6 426.595068 
L 344.768831 426.595068 
L 344.768831 419.651507 
L 183.6 419.651507 
z
" clip-path="url(#pd88fa4dce0)" style="fill: #1f77b4"/>
   </g>
   <g id="patch_9">
    <path d="M 183.6 417.915616 
L 382.742857 417.915616 
L 382.742857 410.972055 
L 183.6 410.972055 
z
" clip-path="url(#pd88fa4dce0)" style="fill: #1f77b4"/>
   </g>
   <g id="patch_10">
    <path d="M 183.6 409.236164 
L 383.184416 409.236164 
L 383.184416 402.292603 
L 183.6 402.292603 
z
" clip-path="url(#pd88fa4dce0)" style="fill: #1f77b4"/>
   </g>
   <g id="patch_11">
    <path d="M 368.171429 469.992329 
L 416.742857 469.992329 
L 416.742857 463.048767 
L 368.171429 463.048767 
z
" clip-path="url(#pd88fa4dce0)" style="fill: #aec7e8"/>
   </g>
   <g id="patch_12">
    <path d="M 372.587013 461.312877 
L 416.742857 461.312877 
L 416.742857 454.369315 
L 372.587013 454.369315 
z
" clip-path="url(#pd88fa4dce0)" style="fill: #aec7e8"/>
   </g>
   <g id="patch_13">
    <path d="M 371.703896 452.633425 
L 416.742857 452.633425 
L 416.742857 445.689863 
L 371.703896 445.689863 
z
" clip-path="url(#pd88fa4dce0)" style="fill: #aec7e8"/>
   </g>
   <g id="patch_14">
    <path d="M 376.119481 443.953973 
L 416.742857 443.953973 
L 416.742857 437.010411 
L 376.119481 437.010411 
z
" clip-path="url(#pd88fa4dce0)" style="fill: #aec7e8"/>
   </g>
   <g id="patch_15">
    <path d="M 373.47013 435.274521 
L 416.742857 435.274521 
L 416.742857 428.330959 
L 373.47013 428.330959 
z
" clip-path="url(#pd88fa4dce0)" style="fill: #aec7e8"/>
   </g>
   <g id="patch_16">
    <path d="M 344.768831 426.595068 
L 416.742857 426.595068 
L 416.742857 419.651507 
L 344.768831 419.651507 
z
" clip-path="url(#pd88fa4dce0)" style="fill: #aec7e8"/>
   </g>
   <g id="patch_17">
    <path d="M 382.742857 417.915616 
L 416.742857 417.915616 
L 416.742857 410.972055 
L 382.742857 410.972055 
z
" clip-path="url(#pd88fa4dce0)" style="fill: #aec7e8"/>
   </g>
   <g id="patch_18">
    <path d="M 383.184416 409.236164 
L 416.742857 409.236164 
L 416.742857 402.292603 
L 383.184416 402.292603 
z
" clip-path="url(#pd88fa4dce0)" style="fill: #aec7e8"/>
   </g>
   <g id="patch_19">
    <path d="M 183.6 391.87726 
L 383.184416 391.87726 
L 383.184416 384.933699 
L 183.6 384.933699 
z
" clip-path="url(#pd88fa4dce0)" style="fill: #1f77b4"/>
   </g>
   <g id="patch_20">
    <path d="M 183.6 383.197808 
L 352.275325 383.197808 
L 352.275325 376.254247 
L 183.6 376.254247 
z
" clip-path="url(#pd88fa4dce0)" style="fill: #1f77b4"/>
   </g>
   <g id="patch_21">
    <path d="M 183.6 374.518356 
L 382.742857 374.518356 
L 382.742857 367.574795 
L 183.6 367.574795 
z
" clip-path="url(#pd88fa4dce0)" style="fill: #1f77b4"/>
   </g>
   <g id="patch_22">
    <path d="M 183.6 365.838904 
L 381.85974 365.838904 
L 381.85974 358.895342 
L 183.6 358.895342 
z
" clip-path="url(#pd88fa4dce0)" style="fill: #1f77b4"/>
   </g>
   <g id="patch_23">
    <path d="M 183.6 357.159452 
L 377.885714 357.159452 
L 377.885714 350.21589 
L 183.6 350.21589 
z
" clip-path="url(#pd88fa4dce0)" style="fill: #1f77b4"/>
   </g>
   <g id="patch_24">
    <path d="M 183.6 348.48 
L 384.509091 348.48 
L 384.509091 341.536438 
L 183.6 341.536438 
z
" clip-path="url(#pd88fa4dce0)" style="fill: #1f77b4"/>
   </g>
   <g id="patch_25">
    <path d="M 183.6 339.800548 
L 378.327273 339.800548 
L 378.327273 332.856986 
L 183.6 332.856986 
z
" clip-path="url(#pd88fa4dce0)" style="fill: #1f77b4"/>
   </g>
   <g id="patch_26">
    <path d="M 183.6 331.121096 
L 375.236364 331.121096 
L 375.236364 324.177534 
L 183.6 324.177534 
z
" clip-path="url(#pd88fa4dce0)" style="fill: #1f77b4"/>
   </g>
   <g id="patch_27">
    <path d="M 383.184416 391.87726 
L 416.742857 391.87726 
L 416.742857 384.933699 
L 383.184416 384.933699 
z
" clip-path="url(#pd88fa4dce0)" style="fill: #aec7e8"/>
   </g>
   <g id="patch_28">
    <path d="M 352.275325 383.197808 
L 416.742857 383.197808 
L 416.742857 376.254247 
L 352.275325 376.254247 
z
" clip-path="url(#pd88fa4dce0)" style="fill: #aec7e8"/>
   </g>
   <g id="patch_29">
    <path d="M 382.742857 374.518356 
L 416.742857 374.518356 
L 416.742857 367.574795 
L 382.742857 367.574795 
z
" clip-path="url(#pd88fa4dce0)" style="fill: #aec7e8"/>
   </g>
   <g id="patch_30">
    <path d="M 381.85974 365.838904 
L 416.742857 365.838904 
L 416.742857 358.895342 
L 381.85974 358.895342 
z
" clip-path="url(#pd88fa4dce0)" style="fill: #aec7e8"/>
   </g>
   <g id="patch_31">
    <path d="M 377.885714 357.159452 
L 416.742857 357.159452 
L 416.742857 350.21589 
L 377.885714 350.21589 
z
" clip-path="url(#pd88fa4dce0)" style="fill: #aec7e8"/>
   </g>
   <g id="patch_32">
    <path d="M 384.509091 348.48 
L 416.742857 348.48 
L 416.742857 341.536438 
L 384.509091 341.536438 
z
" clip-path="url(#pd88fa4dce0)" style="fill: #aec7e8"/>
   </g>
   <g id="patch_33">
    <path d="M 378.327273 339.800548 
L 416.742857 339.800548 
L 416.742857 332.856986 
L 378.327273 332.856986 
z
" clip-path="url(#pd88fa4dce0)" style="fill: #aec7e8"/>
   </g>
   <g id="patch_34">
    <path d="M 375.236364 331.121096 
L 416.742857 331.121096 
L 416.742857 324.177534 
L 375.236364 324.177534 
z
" clip-path="url(#pd88fa4dce0)" style="fill: #aec7e8"/>
   </g>
   <g id="patch_35">
    <path d="M 183.6 313.762192 
L 365.080519 313.762192 
L 365.080519 306.81863 
L 183.6 306.81863 
z
" clip-path="url(#pd88fa4dce0)" style="fill: #1f77b4"/>
   </g>
   <g id="patch_36">
    <path d="M 183.6 305.08274 
L 340.794805 305.08274 
L 340.794805 298.139178 
L 183.6 298.139178 
z
" clip-path="url(#pd88fa4dce0)" style="fill: #1f77b4"/>
   </g>
   <g id="patch_37">
    <path d="M 183.6 296.403288 
L 348.301299 296.403288 
L 348.301299 289.459726 
L 183.6 289.459726 
z
" clip-path="url(#pd88fa4dce0)" style="fill: #1f77b4"/>
   </g>
   <g id="patch_38">
    <path d="M 183.6 287.723836 
L 346.535065 287.723836 
L 346.535065 280.780274 
L 183.6 280.780274 
z
" clip-path="url(#pd88fa4dce0)" style="fill: #1f77b4"/>
   </g>
   <g id="patch_39">
    <path d="M 183.6 279.044384 
L 339.47013 279.044384 
L 339.47013 272.100822 
L 183.6 272.100822 
z
" clip-path="url(#pd88fa4dce0)" style="fill: #1f77b4"/>
   </g>
   <g id="patch_40">
    <path d="M 183.6 270.364932 
L 321.366234 270.364932 
L 321.366234 263.42137 
L 183.6 263.42137 
z
" clip-path="url(#pd88fa4dce0)" style="fill: #1f77b4"/>
   </g>
   <g id="patch_41">
    <path d="M 183.6 261.685479 
L 351.392208 261.685479 
L 351.392208 254.741918 
L 183.6 254.741918 
z
" clip-path="url(#pd88fa4dce0)" style="fill: #1f77b4"/>
   </g>
   <g id="patch_42">
    <path d="M 183.6 253.006027 
L 344.768831 253.006027 
L 344.768831 246.062466 
L 183.6 246.062466 
z
" clip-path="url(#pd88fa4dce0)" style="fill: #1f77b4"/>
   </g>
   <g id="patch_43">
    <path d="M 365.080519 313.762192 
L 416.742857 313.762192 
L 416.742857 306.81863 
L 365.080519 306.81863 
z
" clip-path="url(#pd88fa4dce0)" style="fill: #aec7e8"/>
   </g>
   <g id="patch_44">
    <path d="M 340.794805 305.08274 
L 416.742857 305.08274 
L 416.742857 298.139178 
L 340.794805 298.139178 
z
" clip-path="url(#pd88fa4dce0)" style="fill: #aec7e8"/>
   </g>
   <g id="patch_45">
    <path d="M 348.301299 296.403288 
L 416.742857 296.403288 
L 416.742857 289.459726 
L 348.301299 289.459726 
z
" clip-path="url(#pd88fa4dce0)" style="fill: #aec7e8"/>
   </g>
   <g id="patch_46">
    <path d="M 346.535065 287.723836 
L 416.742857 287.723836 
L 416.742857 280.780274 
L 346.535065 280.780274 
z
" clip-path="url(#pd88fa4dce0)" style="fill: #aec7e8"/>
   </g>
   <g id="patch_47">
    <path d="M 339.47013 279.044384 
L 416.742857 279.044384 
L 416.742857 272.100822 
L 339.47013 272.100822 
z
" clip-path="url(#pd88fa4dce0)" style="fill: #aec7e8"/>
   </g>
   <g id="patch_48">
    <path d="M 321.366234 270.364932 
L 416.742857 270.364932 
L 416.742857 263.42137 
L 321.366234 263.42137 
z
" clip-path="url(#pd88fa4dce0)" style="fill: #aec7e8"/>
   </g>
   <g id="patch_49">
    <path d="M 351.392208 261.685479 
L 416.742857 261.685479 
L 416.742857 254.741918 
L 351.392208 254.741918 
z
" clip-path="url(#pd88fa4dce0)" style="fill: #aec7e8"/>
   </g>
   <g id="patch_50">
    <path d="M 344.768831 253.006027 
L 416.742857 253.006027 
L 416.742857 246.062466 
L 344.768831 246.062466 
z
" clip-path="url(#pd88fa4dce0)" style="fill: #aec7e8"/>
   </g>
   <g id="patch_51">
    <path d="M 183.6 235.647123 
L 353.158442 235.647123 
L 353.158442 228.703562 
L 183.6 228.703562 
z
" clip-path="url(#pd88fa4dce0)" style="fill: #1f77b4"/>
   </g>
   <g id="patch_52">
    <path d="M 183.6 226.967671 
L 343.885714 226.967671 
L 343.885714 220.02411 
L 183.6 220.02411 
z
" clip-path="url(#pd88fa4dce0)" style="fill: #1f77b4"/>
   </g>
   <g id="patch_53">
    <path d="M 183.6 218.288219 
L 357.132468 218.288219 
L 357.132468 211.344658 
L 183.6 211.344658 
z
" clip-path="url(#pd88fa4dce0)" style="fill: #1f77b4"/>
   </g>
   <g id="patch_54">
    <path d="M 183.6 209.608767 
L 352.275325 209.608767 
L 352.275325 202.665205 
L 183.6 202.665205 
z
" clip-path="url(#pd88fa4dce0)" style="fill: #1f77b4"/>
   </g>
   <g id="patch_55">
    <path d="M 183.6 200.929315 
L 343.002597 200.929315 
L 343.002597 193.985753 
L 183.6 193.985753 
z
" clip-path="url(#pd88fa4dce0)" style="fill: #1f77b4"/>
   </g>
   <g id="patch_56">
    <path d="M 183.6 192.249863 
L 354.483117 192.249863 
L 354.483117 185.306301 
L 183.6 185.306301 
z
" clip-path="url(#pd88fa4dce0)" style="fill: #1f77b4"/>
   </g>
   <g id="patch_57">
    <path d="M 183.6 183.570411 
L 355.366234 183.570411 
L 355.366234 176.626849 
L 183.6 176.626849 
z
" clip-path="url(#pd88fa4dce0)" style="fill: #1f77b4"/>
   </g>
   <g id="patch_58">
    <path d="M 183.6 174.890959 
L 338.587013 174.890959 
L 338.587013 167.947397 
L 183.6 167.947397 
z
" clip-path="url(#pd88fa4dce0)" style="fill: #1f77b4"/>
   </g>
   <g id="patch_59">
    <path d="M 353.158442 235.647123 
L 416.742857 235.647123 
L 416.742857 228.703562 
L 353.158442 228.703562 
z
" clip-path="url(#pd88fa4dce0)" style="fill: #aec7e8"/>
   </g>
   <g id="patch_60">
    <path d="M 343.885714 226.967671 
L 416.742857 226.967671 
L 416.742857 220.02411 
L 343.885714 220.02411 
z
" clip-path="url(#pd88fa4dce0)" style="fill: #aec7e8"/>
   </g>
   <g id="patch_61">
    <path d="M 357.132468 218.288219 
L 416.742857 218.288219 
L 416.742857 211.344658 
L 357.132468 211.344658 
z
" clip-path="url(#pd88fa4dce0)" style="fill: #aec7e8"/>
   </g>
   <g id="patch_62">
    <path d="M 352.275325 209.608767 
L 416.742857 209.608767 
L 416.742857 202.665205 
L 352.275325 202.665205 
z
" clip-path="url(#pd88fa4dce0)" style="fill: #aec7e8"/>
   </g>
   <g id="patch_63">
    <path d="M 343.002597 200.929315 
L 416.742857 200.929315 
L 416.742857 193.985753 
L 343.002597 193.985753 
z
" clip-path="url(#pd88fa4dce0)" style="fill: #aec7e8"/>
   </g>
   <g id="patch_64">
    <path d="M 354.483117 192.249863 
L 416.742857 192.249863 
L 416.742857 185.306301 
L 354.483117 185.306301 
z
" clip-path="url(#pd88fa4dce0)" style="fill: #aec7e8"/>
   </g>
   <g id="patch_65">
    <path d="M 355.366234 183.570411 
L 416.742857 183.570411 
L 416.742857 176.626849 
L 355.366234 176.626849 
z
" clip-path="url(#pd88fa4dce0)" style="fill: #aec7e8"/>
   </g>
   <g id="patch_66">
    <path d="M 338.587013 174.890959 
L 416.742857 174.890959 
L 416.742857 167.947397 
L 338.587013 167.947397 
z
" clip-path="url(#pd88fa4dce0)" style="fill: #aec7e8"/>
   </g>
   <g id="matplotlib.axis_1">
    <g id="xtick_1">
     <g id="line2d_1">
      <defs>
       <path id="m5236975636" d="M 0 0 
L 0 3.5 
" style="stroke: #000000"/>
      </defs>
      <g>
       <use xlink:href="#m5236975636" x="183.6" y="475.2" style="stroke: #000000"/>
      </g>
     </g>
     <g id="text_1">
      <!-- 0 -->
      <g transform="translate(180.121094 489.798437)scale(0.1 -0.1)">
       <defs>
        <path id="DejaVuSans-Bold-30" d="M 2944 2338 
Q 2944 3213 2780 3570 
Q 2616 3928 2228 3928 
Q 1841 3928 1675 3570 
Q 1509 3213 1509 2338 
Q 1509 1453 1675 1090 
Q 1841 728 2228 728 
Q 2613 728 2778 1090 
Q 2944 1453 2944 2338 
z
M 4147 2328 
Q 4147 1169 3647 539 
Q 3147 -91 2228 -91 
Q 1306 -91 806 539 
Q 306 1169 306 2328 
Q 306 3491 806 4120 
Q 1306 4750 2228 4750 
Q 3147 4750 3647 4120 
Q 4147 3491 4147 2328 
z
" transform="scale(0.015625)"/>
       </defs>
       <use xlink:href="#DejaVuSans-Bold-30"/>
      </g>
     </g>
    </g>
    <g id="xtick_2">
     <g id="line2d_2">
      <g>
       <use xlink:href="#m5236975636" x="227.755844" y="475.2" style="stroke: #000000"/>
      </g>
     </g>
     <g id="text_2">
      <!-- 100 -->
      <g transform="translate(217.319125 489.798437)scale(0.1 -0.1)">
       <defs>
        <path id="DejaVuSans-Bold-31" d="M 750 831 
L 1813 831 
L 1813 3847 
L 722 3622 
L 722 4441 
L 1806 4666 
L 2950 4666 
L 2950 831 
L 4013 831 
L 4013 0 
L 750 0 
L 750 831 
z
" transform="scale(0.015625)"/>
       </defs>
       <use xlink:href="#DejaVuSans-Bold-31"/>
       <use xlink:href="#DejaVuSans-Bold-30" x="69.580078"/>
       <use xlink:href="#DejaVuSans-Bold-30" x="139.160156"/>
      </g>
     </g>
    </g>
    <g id="xtick_3">
     <g id="line2d_3">
      <g>
       <use xlink:href="#m5236975636" x="271.911688" y="475.2" style="stroke: #000000"/>
      </g>
     </g>
     <g id="text_3">
      <!-- 200 -->
      <g transform="translate(261.47497 489.798437)scale(0.1 -0.1)">
       <defs>
        <path id="DejaVuSans-Bold-32" d="M 1844 884 
L 3897 884 
L 3897 0 
L 506 0 
L 506 884 
L 2209 2388 
Q 2438 2594 2547 2791 
Q 2656 2988 2656 3200 
Q 2656 3528 2436 3728 
Q 2216 3928 1850 3928 
Q 1569 3928 1234 3808 
Q 900 3688 519 3450 
L 519 4475 
Q 925 4609 1322 4679 
Q 1719 4750 2100 4750 
Q 2938 4750 3402 4381 
Q 3866 4013 3866 3353 
Q 3866 2972 3669 2642 
Q 3472 2313 2841 1759 
L 1844 884 
z
" transform="scale(0.015625)"/>
       </defs>
       <use xlink:href="#DejaVuSans-Bold-32"/>
       <use xlink:href="#DejaVuSans-Bold-30" x="69.580078"/>
       <use xlink:href="#DejaVuSans-Bold-30" x="139.160156"/>
      </g>
     </g>
    </g>
    <g id="xtick_4">
     <g id="line2d_4">
      <g>
       <use xlink:href="#m5236975636" x="316.067532" y="475.2" style="stroke: #000000"/>
      </g>
     </g>
     <g id="text_4">
      <!-- 300 -->
      <g transform="translate(305.630814 489.798437)scale(0.1 -0.1)">
       <defs>
        <path id="DejaVuSans-Bold-33" d="M 2981 2516 
Q 3453 2394 3698 2092 
Q 3944 1791 3944 1325 
Q 3944 631 3412 270 
Q 2881 -91 1863 -91 
Q 1503 -91 1142 -33 
Q 781 25 428 141 
L 428 1069 
Q 766 900 1098 814 
Q 1431 728 1753 728 
Q 2231 728 2486 893 
Q 2741 1059 2741 1369 
Q 2741 1688 2480 1852 
Q 2219 2016 1709 2016 
L 1228 2016 
L 1228 2791 
L 1734 2791 
Q 2188 2791 2409 2933 
Q 2631 3075 2631 3366 
Q 2631 3634 2415 3781 
Q 2200 3928 1806 3928 
Q 1516 3928 1219 3862 
Q 922 3797 628 3669 
L 628 4550 
Q 984 4650 1334 4700 
Q 1684 4750 2022 4750 
Q 2931 4750 3382 4451 
Q 3834 4153 3834 3553 
Q 3834 3144 3618 2883 
Q 3403 2622 2981 2516 
z
" transform="scale(0.015625)"/>
       </defs>
       <use xlink:href="#DejaVuSans-Bold-33"/>
       <use xlink:href="#DejaVuSans-Bold-30" x="69.580078"/>
       <use xlink:href="#DejaVuSans-Bold-30" x="139.160156"/>
      </g>
     </g>
    </g>
    <g id="xtick_5">
     <g id="line2d_5">
      <g>
       <use xlink:href="#m5236975636" x="360.223377" y="475.2" style="stroke: #000000"/>
      </g>
     </g>
     <g id="text_5">
      <!-- 400 -->
      <g transform="translate(349.786658 489.798437)scale(0.1 -0.1)">
       <defs>
        <path id="DejaVuSans-Bold-34" d="M 2356 3675 
L 1038 1722 
L 2356 1722 
L 2356 3675 
z
M 2156 4666 
L 3494 4666 
L 3494 1722 
L 4159 1722 
L 4159 850 
L 3494 850 
L 3494 0 
L 2356 0 
L 2356 850 
L 288 850 
L 288 1881 
L 2156 4666 
z
" transform="scale(0.015625)"/>
       </defs>
       <use xlink:href="#DejaVuSans-Bold-34"/>
       <use xlink:href="#DejaVuSans-Bold-30" x="69.580078"/>
       <use xlink:href="#DejaVuSans-Bold-30" x="139.160156"/>
      </g>
     </g>
    </g>
    <g id="xtick_6">
     <g id="line2d_6">
      <g>
       <use xlink:href="#m5236975636" x="404.379221" y="475.2" style="stroke: #000000"/>
      </g>
     </g>
     <g id="text_6">
      <!-- 500 -->
      <g transform="translate(393.942502 489.798437)scale(0.1 -0.1)">
       <defs>
        <path id="DejaVuSans-Bold-35" d="M 678 4666 
L 3669 4666 
L 3669 3781 
L 1638 3781 
L 1638 3059 
Q 1775 3097 1914 3117 
Q 2053 3138 2203 3138 
Q 3056 3138 3531 2711 
Q 4006 2284 4006 1522 
Q 4006 766 3489 337 
Q 2972 -91 2053 -91 
Q 1656 -91 1267 -14 
Q 878 63 494 219 
L 494 1166 
Q 875 947 1217 837 
Q 1559 728 1863 728 
Q 2300 728 2551 942 
Q 2803 1156 2803 1522 
Q 2803 1891 2551 2103 
Q 2300 2316 1863 2316 
Q 1603 2316 1309 2248 
Q 1016 2181 678 2041 
L 678 4666 
z
" transform="scale(0.015625)"/>
       </defs>
       <use xlink:href="#DejaVuSans-Bold-35"/>
       <use xlink:href="#DejaVuSans-Bold-30" x="69.580078"/>
       <use xlink:href="#DejaVuSans-Bold-30" x="139.160156"/>
      </g>
     </g>
    </g>
   </g>
   <g id="matplotlib.axis_2"/>
   <g id="patch_67">
    <path d="M 183.6 475.2 
L 183.6 158.4 
" style="fill: none; stroke: #000000; stroke-linejoin: miter; stroke-linecap: square"/>
   </g>
   <g id="patch_68">
    <path d="M 183.6 475.2 
L 428.4 475.2 
" style="fill: none; stroke: #000000; stroke-linejoin: miter; stroke-linecap: square"/>
   </g>
  </g>
  <g id="patch_69">
   <path d="M 223.38 562.716 
L 260.1 562.716 
L 260.1 546.084 
L 223.38 546.084 
z
" style="fill: #1f77b4; stroke: #1f77b4; stroke-linejoin: miter"/>
  </g>
  <g id="patch_70">
   <path d="M 376.38 562.716 
L 413.1 562.716 
L 413.1 546.084 
L 376.38 546.084 
z
" style="fill: #aec7e8; stroke: #aec7e8; stroke-linejoin: miter"/>
  </g>
  <g id="text_7">
   <!-- BMIF, Dx -->
   <g transform="translate(106.146562 435.389927)scale(0.13 -0.13)">
    <defs>
     <path id="DejaVuSans-Bold-42" d="M 2456 2859 
Q 2741 2859 2887 2984 
Q 3034 3109 3034 3353 
Q 3034 3594 2887 3720 
Q 2741 3847 2456 3847 
L 1791 3847 
L 1791 2859 
L 2456 2859 
z
M 2497 819 
Q 2859 819 3042 972 
Q 3225 1125 3225 1434 
Q 3225 1738 3044 1889 
Q 2863 2041 2497 2041 
L 1791 2041 
L 1791 819 
L 2497 819 
z
M 3616 2497 
Q 4003 2384 4215 2081 
Q 4428 1778 4428 1338 
Q 4428 663 3972 331 
Q 3516 0 2584 0 
L 588 0 
L 588 4666 
L 2394 4666 
Q 3366 4666 3802 4372 
Q 4238 4078 4238 3431 
Q 4238 3091 4078 2852 
Q 3919 2613 3616 2497 
z
" transform="scale(0.015625)"/>
     <path id="DejaVuSans-Bold-4d" d="M 588 4666 
L 2119 4666 
L 3181 2169 
L 4250 4666 
L 5778 4666 
L 5778 0 
L 4641 0 
L 4641 3413 
L 3566 897 
L 2803 897 
L 1728 3413 
L 1728 0 
L 588 0 
L 588 4666 
z
" transform="scale(0.015625)"/>
     <path id="DejaVuSans-Bold-49" d="M 588 4666 
L 1791 4666 
L 1791 0 
L 588 0 
L 588 4666 
z
" transform="scale(0.015625)"/>
     <path id="DejaVuSans-Bold-46" d="M 588 4666 
L 3834 4666 
L 3834 3756 
L 1791 3756 
L 1791 2888 
L 3713 2888 
L 3713 1978 
L 1791 1978 
L 1791 0 
L 588 0 
L 588 4666 
z
" transform="scale(0.015625)"/>
     <path id="DejaVuSans-Bold-2c" d="M 653 1209 
L 1778 1209 
L 1778 256 
L 1006 -909 
L 341 -909 
L 653 256 
L 653 1209 
z
" transform="scale(0.015625)"/>
     <path id="DejaVuSans-Bold-20" transform="scale(0.015625)"/>
     <path id="DejaVuSans-Bold-44" d="M 1791 3756 
L 1791 909 
L 2222 909 
Q 2959 909 3348 1275 
Q 3738 1641 3738 2338 
Q 3738 3031 3350 3393 
Q 2963 3756 2222 3756 
L 1791 3756 
z
M 588 4666 
L 1856 4666 
Q 2919 4666 3439 4514 
Q 3959 4363 4331 4000 
Q 4659 3684 4818 3271 
Q 4978 2859 4978 2338 
Q 4978 1809 4818 1395 
Q 4659 981 4331 666 
Q 3956 303 3431 151 
Q 2906 0 1856 0 
L 588 0 
L 588 4666 
z
" transform="scale(0.015625)"/>
     <path id="DejaVuSans-Bold-78" d="M 1422 1791 
L 159 3500 
L 1344 3500 
L 2059 2463 
L 2784 3500 
L 3969 3500 
L 2706 1797 
L 4031 0 
L 2847 0 
L 2059 1106 
L 1281 0 
L 97 0 
L 1422 1791 
z
" transform="scale(0.015625)"/>
    </defs>
    <use xlink:href="#DejaVuSans-Bold-42"/>
    <use xlink:href="#DejaVuSans-Bold-4d" x="76.220703"/>
    <use xlink:href="#DejaVuSans-Bold-49" x="175.732422"/>
    <use xlink:href="#DejaVuSans-Bold-46" x="212.939453"/>
    <use xlink:href="#DejaVuSans-Bold-2c" x="265.125"/>
    <use xlink:href="#DejaVuSans-Bold-20" x="303.113281"/>
    <use xlink:href="#DejaVuSans-Bold-44" x="337.927734"/>
    <use xlink:href="#DejaVuSans-Bold-78" x="420.935547"/>
   </g>
  </g>
  <g id="text_8">
   <!-- BMIF, D29 -->
   <g transform="translate(101.293906 357.274859)scale(0.13 -0.13)">
    <defs>
     <path id="DejaVuSans-Bold-39" d="M 641 103 
L 641 966 
Q 928 831 1190 764 
Q 1453 697 1709 697 
Q 2247 697 2547 995 
Q 2847 1294 2900 1881 
Q 2688 1725 2447 1647 
Q 2206 1569 1925 1569 
Q 1209 1569 770 1986 
Q 331 2403 331 3084 
Q 331 3838 820 4291 
Q 1309 4744 2131 4744 
Q 3044 4744 3544 4128 
Q 4044 3513 4044 2388 
Q 4044 1231 3459 570 
Q 2875 -91 1856 -91 
Q 1528 -91 1228 -42 
Q 928 6 641 103 
z
M 2125 2350 
Q 2441 2350 2600 2554 
Q 2759 2759 2759 3169 
Q 2759 3575 2600 3781 
Q 2441 3988 2125 3988 
Q 1809 3988 1650 3781 
Q 1491 3575 1491 3169 
Q 1491 2759 1650 2554 
Q 1809 2350 2125 2350 
z
" transform="scale(0.015625)"/>
    </defs>
    <use xlink:href="#DejaVuSans-Bold-42"/>
    <use xlink:href="#DejaVuSans-Bold-4d" x="76.220703"/>
    <use xlink:href="#DejaVuSans-Bold-49" x="175.732422"/>
    <use xlink:href="#DejaVuSans-Bold-46" x="212.939453"/>
    <use xlink:href="#DejaVuSans-Bold-2c" x="265.125"/>
    <use xlink:href="#DejaVuSans-Bold-20" x="303.113281"/>
    <use xlink:href="#DejaVuSans-Bold-44" x="337.927734"/>
    <use xlink:href="#DejaVuSans-Bold-32" x="420.935547"/>
    <use xlink:href="#DejaVuSans-Bold-39" x="490.515625"/>
   </g>
  </g>
  <g id="text_9">
   <!-- PB, Dx -->
   <g transform="translate(113.661172 279.15979)scale(0.13 -0.13)">
    <defs>
     <path id="DejaVuSans-Bold-50" d="M 588 4666 
L 2584 4666 
Q 3475 4666 3951 4270 
Q 4428 3875 4428 3144 
Q 4428 2409 3951 2014 
Q 3475 1619 2584 1619 
L 1791 1619 
L 1791 0 
L 588 0 
L 588 4666 
z
M 1791 3794 
L 1791 2491 
L 2456 2491 
Q 2806 2491 2997 2661 
Q 3188 2831 3188 3144 
Q 3188 3456 2997 3625 
Q 2806 3794 2456 3794 
L 1791 3794 
z
" transform="scale(0.015625)"/>
    </defs>
    <use xlink:href="#DejaVuSans-Bold-50"/>
    <use xlink:href="#DejaVuSans-Bold-42" x="73.291016"/>
    <use xlink:href="#DejaVuSans-Bold-2c" x="149.511719"/>
    <use xlink:href="#DejaVuSans-Bold-20" x="187.5"/>
    <use xlink:href="#DejaVuSans-Bold-44" x="222.314453"/>
    <use xlink:href="#DejaVuSans-Bold-78" x="305.322266"/>
   </g>
  </g>
  <g id="text_10">
   <!-- PB, D29 -->
   <g transform="translate(108.808516 201.044722)scale(0.13 -0.13)">
    <use xlink:href="#DejaVuSans-Bold-50"/>
    <use xlink:href="#DejaVuSans-Bold-42" x="73.291016"/>
    <use xlink:href="#DejaVuSans-Bold-2c" x="149.511719"/>
    <use xlink:href="#DejaVuSans-Bold-20" x="187.5"/>
    <use xlink:href="#DejaVuSans-Bold-44" x="222.314453"/>
    <use xlink:href="#DejaVuSans-Bold-32" x="305.322266"/>
    <use xlink:href="#DejaVuSans-Bold-39" x="374.902344"/>
   </g>
  </g>
  <g id="text_11">
   <!-- Unique Protein Count -->
   <g transform="translate(227.248437 518.387187)scale(0.13 -0.13)">
    <defs>
     <path id="DejaVuSans-Bold-55" d="M 588 4666 
L 1791 4666 
L 1791 1869 
Q 1791 1291 1980 1042 
Q 2169 794 2597 794 
Q 3028 794 3217 1042 
Q 3406 1291 3406 1869 
L 3406 4666 
L 4609 4666 
L 4609 1869 
Q 4609 878 4112 393 
Q 3616 -91 2597 -91 
Q 1581 -91 1084 393 
Q 588 878 588 1869 
L 588 4666 
z
" transform="scale(0.015625)"/>
     <path id="DejaVuSans-Bold-6e" d="M 4056 2131 
L 4056 0 
L 2931 0 
L 2931 347 
L 2931 1631 
Q 2931 2084 2911 2256 
Q 2891 2428 2841 2509 
Q 2775 2619 2662 2680 
Q 2550 2741 2406 2741 
Q 2056 2741 1856 2470 
Q 1656 2200 1656 1722 
L 1656 0 
L 538 0 
L 538 3500 
L 1656 3500 
L 1656 2988 
Q 1909 3294 2193 3439 
Q 2478 3584 2822 3584 
Q 3428 3584 3742 3212 
Q 4056 2841 4056 2131 
z
" transform="scale(0.015625)"/>
     <path id="DejaVuSans-Bold-69" d="M 538 3500 
L 1656 3500 
L 1656 0 
L 538 0 
L 538 3500 
z
M 538 4863 
L 1656 4863 
L 1656 3950 
L 538 3950 
L 538 4863 
z
" transform="scale(0.015625)"/>
     <path id="DejaVuSans-Bold-71" d="M 2181 2772 
Q 1825 2772 1636 2509 
Q 1447 2247 1447 1747 
Q 1447 1247 1636 984 
Q 1825 722 2181 722 
Q 2541 722 2730 984 
Q 2919 1247 2919 1747 
Q 2919 2247 2730 2509 
Q 2541 2772 2181 2772 
z
M 2919 506 
Q 2688 197 2409 53 
Q 2131 -91 1766 -91 
Q 1119 -91 703 423 
Q 288 938 288 1747 
Q 288 2556 703 3067 
Q 1119 3578 1766 3578 
Q 2131 3578 2409 3434 
Q 2688 3291 2919 2981 
L 2919 3500 
L 4044 3500 
L 4044 -1331 
L 2919 -1331 
L 2919 506 
z
" transform="scale(0.015625)"/>
     <path id="DejaVuSans-Bold-75" d="M 500 1363 
L 500 3500 
L 1625 3500 
L 1625 3150 
Q 1625 2866 1622 2436 
Q 1619 2006 1619 1863 
Q 1619 1441 1641 1255 
Q 1663 1069 1716 984 
Q 1784 875 1895 815 
Q 2006 756 2150 756 
Q 2500 756 2700 1025 
Q 2900 1294 2900 1772 
L 2900 3500 
L 4019 3500 
L 4019 0 
L 2900 0 
L 2900 506 
Q 2647 200 2364 54 
Q 2081 -91 1741 -91 
Q 1134 -91 817 281 
Q 500 653 500 1363 
z
" transform="scale(0.015625)"/>
     <path id="DejaVuSans-Bold-65" d="M 4031 1759 
L 4031 1441 
L 1416 1441 
Q 1456 1047 1700 850 
Q 1944 653 2381 653 
Q 2734 653 3104 758 
Q 3475 863 3866 1075 
L 3866 213 
Q 3469 63 3072 -14 
Q 2675 -91 2278 -91 
Q 1328 -91 801 392 
Q 275 875 275 1747 
Q 275 2603 792 3093 
Q 1309 3584 2216 3584 
Q 3041 3584 3536 3087 
Q 4031 2591 4031 1759 
z
M 2881 2131 
Q 2881 2450 2695 2645 
Q 2509 2841 2209 2841 
Q 1884 2841 1681 2658 
Q 1478 2475 1428 2131 
L 2881 2131 
z
" transform="scale(0.015625)"/>
     <path id="DejaVuSans-Bold-72" d="M 3138 2547 
Q 2991 2616 2845 2648 
Q 2700 2681 2553 2681 
Q 2122 2681 1889 2404 
Q 1656 2128 1656 1613 
L 1656 0 
L 538 0 
L 538 3500 
L 1656 3500 
L 1656 2925 
Q 1872 3269 2151 3426 
Q 2431 3584 2822 3584 
Q 2878 3584 2943 3579 
Q 3009 3575 3134 3559 
L 3138 2547 
z
" transform="scale(0.015625)"/>
     <path id="DejaVuSans-Bold-6f" d="M 2203 2784 
Q 1831 2784 1636 2517 
Q 1441 2250 1441 1747 
Q 1441 1244 1636 976 
Q 1831 709 2203 709 
Q 2569 709 2762 976 
Q 2956 1244 2956 1747 
Q 2956 2250 2762 2517 
Q 2569 2784 2203 2784 
z
M 2203 3584 
Q 3106 3584 3614 3096 
Q 4122 2609 4122 1747 
Q 4122 884 3614 396 
Q 3106 -91 2203 -91 
Q 1297 -91 786 396 
Q 275 884 275 1747 
Q 275 2609 786 3096 
Q 1297 3584 2203 3584 
z
" transform="scale(0.015625)"/>
     <path id="DejaVuSans-Bold-74" d="M 1759 4494 
L 1759 3500 
L 2913 3500 
L 2913 2700 
L 1759 2700 
L 1759 1216 
Q 1759 972 1856 886 
Q 1953 800 2241 800 
L 2816 800 
L 2816 0 
L 1856 0 
Q 1194 0 917 276 
Q 641 553 641 1216 
L 641 2700 
L 84 2700 
L 84 3500 
L 641 3500 
L 641 4494 
L 1759 4494 
z
" transform="scale(0.015625)"/>
     <path id="DejaVuSans-Bold-43" d="M 4288 256 
Q 3956 84 3597 -3 
Q 3238 -91 2847 -91 
Q 1681 -91 1000 561 
Q 319 1213 319 2328 
Q 319 3447 1000 4098 
Q 1681 4750 2847 4750 
Q 3238 4750 3597 4662 
Q 3956 4575 4288 4403 
L 4288 3438 
Q 3953 3666 3628 3772 
Q 3303 3878 2944 3878 
Q 2300 3878 1931 3465 
Q 1563 3053 1563 2328 
Q 1563 1606 1931 1193 
Q 2300 781 2944 781 
Q 3303 781 3628 887 
Q 3953 994 4288 1222 
L 4288 256 
z
" transform="scale(0.015625)"/>
    </defs>
    <use xlink:href="#DejaVuSans-Bold-55"/>
    <use xlink:href="#DejaVuSans-Bold-6e" x="81.201172"/>
    <use xlink:href="#DejaVuSans-Bold-69" x="152.392578"/>
    <use xlink:href="#DejaVuSans-Bold-71" x="186.669922"/>
    <use xlink:href="#DejaVuSans-Bold-75" x="258.251953"/>
    <use xlink:href="#DejaVuSans-Bold-65" x="329.443359"/>
    <use xlink:href="#DejaVuSans-Bold-20" x="397.265625"/>
    <use xlink:href="#DejaVuSans-Bold-50" x="432.080078"/>
    <use xlink:href="#DejaVuSans-Bold-72" x="505.371094"/>
    <use xlink:href="#DejaVuSans-Bold-6f" x="554.6875"/>
    <use xlink:href="#DejaVuSans-Bold-74" x="623.388672"/>
    <use xlink:href="#DejaVuSans-Bold-65" x="671.191406"/>
    <use xlink:href="#DejaVuSans-Bold-69" x="739.013672"/>
    <use xlink:href="#DejaVuSans-Bold-6e" x="773.291016"/>
    <use xlink:href="#DejaVuSans-Bold-20" x="844.482422"/>
    <use xlink:href="#DejaVuSans-Bold-43" x="879.296875"/>
    <use xlink:href="#DejaVuSans-Bold-6f" x="952.685547"/>
    <use xlink:href="#DejaVuSans-Bold-75" x="1021.386719"/>
    <use xlink:href="#DejaVuSans-Bold-6e" x="1092.578125"/>
    <use xlink:href="#DejaVuSans-Bold-74" x="1163.769531"/>
   </g>
  </g>
  <g id="text_12">
   <!-- Present -->
   <g transform="translate(155.210234 557.987188)scale(0.13 -0.13)">
    <defs>
     <path id="DejaVuSans-Bold-73" d="M 3272 3391 
L 3272 2541 
Q 2913 2691 2578 2766 
Q 2244 2841 1947 2841 
Q 1628 2841 1473 2761 
Q 1319 2681 1319 2516 
Q 1319 2381 1436 2309 
Q 1553 2238 1856 2203 
L 2053 2175 
Q 2913 2066 3209 1816 
Q 3506 1566 3506 1031 
Q 3506 472 3093 190 
Q 2681 -91 1863 -91 
Q 1516 -91 1145 -36 
Q 775 19 384 128 
L 384 978 
Q 719 816 1070 734 
Q 1422 653 1784 653 
Q 2113 653 2278 743 
Q 2444 834 2444 1013 
Q 2444 1163 2330 1236 
Q 2216 1309 1875 1350 
L 1678 1375 
Q 931 1469 631 1722 
Q 331 1975 331 2491 
Q 331 3047 712 3315 
Q 1094 3584 1881 3584 
Q 2191 3584 2531 3537 
Q 2872 3491 3272 3391 
z
" transform="scale(0.015625)"/>
    </defs>
    <use xlink:href="#DejaVuSans-Bold-50"/>
    <use xlink:href="#DejaVuSans-Bold-72" x="73.291016"/>
    <use xlink:href="#DejaVuSans-Bold-65" x="122.607422"/>
    <use xlink:href="#DejaVuSans-Bold-73" x="190.429688"/>
    <use xlink:href="#DejaVuSans-Bold-65" x="249.951172"/>
    <use xlink:href="#DejaVuSans-Bold-6e" x="317.773438"/>
    <use xlink:href="#DejaVuSans-Bold-74" x="388.964844"/>
   </g>
  </g>
  <g id="text_13">
   <!-- Missing -->
   <g transform="translate(308.658125 557.936406)scale(0.13 -0.13)">
    <defs>
     <path id="DejaVuSans-Bold-67" d="M 2919 594 
Q 2688 288 2409 144 
Q 2131 0 1766 0 
Q 1125 0 706 504 
Q 288 1009 288 1791 
Q 288 2575 706 3076 
Q 1125 3578 1766 3578 
Q 2131 3578 2409 3434 
Q 2688 3291 2919 2981 
L 2919 3500 
L 4044 3500 
L 4044 353 
Q 4044 -491 3511 -936 
Q 2978 -1381 1966 -1381 
Q 1638 -1381 1331 -1331 
Q 1025 -1281 716 -1178 
L 716 -306 
Q 1009 -475 1290 -558 
Q 1572 -641 1856 -641 
Q 2406 -641 2662 -400 
Q 2919 -159 2919 353 
L 2919 594 
z
M 2181 2772 
Q 1834 2772 1640 2515 
Q 1447 2259 1447 1791 
Q 1447 1309 1634 1061 
Q 1822 813 2181 813 
Q 2531 813 2725 1069 
Q 2919 1325 2919 1791 
Q 2919 2259 2725 2515 
Q 2531 2772 2181 2772 
z
" transform="scale(0.015625)"/>
    </defs>
    <use xlink:href="#DejaVuSans-Bold-4d"/>
    <use xlink:href="#DejaVuSans-Bold-69" x="99.511719"/>
    <use xlink:href="#DejaVuSans-Bold-73" x="133.789062"/>
    <use xlink:href="#DejaVuSans-Bold-73" x="193.310547"/>
    <use xlink:href="#DejaVuSans-Bold-69" x="252.832031"/>
    <use xlink:href="#DejaVuSans-Bold-6e" x="287.109375"/>
    <use xlink:href="#DejaVuSans-Bold-67" x="358.300781"/>
   </g>
  </g>
 </g>
 <defs>
  <clipPath id="pd88fa4dce0">
   <rect x="183.6" y="158.4" width="244.8" height="316.8"/>
  </clipPath>
 </defs>
</svg>
