<?xml version="1.0" encoding="utf-8" standalone="no"?>
<!DOCTYPE svg PUBLIC "-//W3C//DTD SVG 1.1//EN"
  "http://www.w3.org/Graphics/SVG/1.1/DTD/svg11.dtd">
<svg xmlns:xlink="http://www.w3.org/1999/xlink" width="612pt" height="792pt" viewBox="0 0 612 792" xmlns="http://www.w3.org/2000/svg" version="1.1">
 <metadata>
  <rdf:RDF xmlns:dc="http://purl.org/dc/elements/1.1/" xmlns:cc="http://creativecommons.org/ns#" xmlns:rdf="http://www.w3.org/1999/02/22-rdf-syntax-ns#">
   <cc:Work>
    <dc:type rdf:resource="http://purl.org/dc/dcmitype/StillImage"/>
    <dc:date>2023-04-23T15:47:00.988467</dc:date>
    <dc:format>image/svg+xml</dc:format>
    <dc:creator>
     <cc:Agent>
      <dc:title>Matplotlib v3.5.3, https://matplotlib.org/</dc:title>
     </cc:Agent>
    </dc:creator>
   </cc:Work>
  </rdf:RDF>
 </metadata>
 <defs>
  <style type="text/css">*{stroke-linejoin: round; stroke-linecap: butt}</style>
 </defs>
 <g id="figure_1">
  <g id="patch_1">
   <path d="M 0 792 
L 612 792 
L 612 0 
L 0 0 
z
" style="fill: #ffffff"/>
  </g>
  <g id="axes_1">
   <g id="patch_2">
    <path d="M 270 259.448276 
L 489.6 259.448276 
L 489.6 79.2 
L 270 79.2 
z
" style="fill: #ffffff"/>
   </g>
   <g id="patch_3">
    <path d="M 278.235 259.448276 
L 289.215 259.448276 
L 289.215 114.348414 
L 278.235 114.348414 
z
" clip-path="url(#p3753762f98)" style="fill: #1f77b4"/>
   </g>
   <g id="patch_4">
    <path d="M 291.96 259.448276 
L 302.94 259.448276 
L 302.94 112.545931 
L 291.96 112.545931 
z
" clip-path="url(#p3753762f98)" style="fill: #1f77b4"/>
   </g>
   <g id="patch_5">
    <path d="M 305.685 259.448276 
L 316.665 259.448276 
L 316.665 114.348414 
L 305.685 114.348414 
z
" clip-path="url(#p3753762f98)" style="fill: #1f77b4"/>
   </g>
   <g id="patch_6">
    <path d="M 319.41 259.448276 
L 330.39 259.448276 
L 330.39 112.09531 
L 319.41 112.09531 
z
" clip-path="url(#p3753762f98)" style="fill: #1f77b4"/>
   </g>
   <g id="patch_7">
    <path d="M 333.135 259.448276 
L 344.115 259.448276 
L 344.115 107.589103 
L 333.135 107.589103 
z
" clip-path="url(#p3753762f98)" style="fill: #1f77b4"/>
   </g>
   <g id="patch_8">
    <path d="M 346.86 259.448276 
L 357.84 259.448276 
L 357.84 91.817379 
L 346.86 91.817379 
z
" clip-path="url(#p3753762f98)" style="fill: #1f77b4"/>
   </g>
   <g id="patch_9">
    <path d="M 360.585 259.448276 
L 371.565 259.448276 
L 371.565 108.490345 
L 360.585 108.490345 
z
" clip-path="url(#p3753762f98)" style="fill: #1f77b4"/>
   </g>
   <g id="patch_10">
    <path d="M 374.31 259.448276 
L 385.29 259.448276 
L 385.29 105.336 
L 374.31 105.336 
z
" clip-path="url(#p3753762f98)" style="fill: #1f77b4"/>
   </g>
   <g id="patch_11">
    <path d="M 388.035 259.448276 
L 399.015 259.448276 
L 399.015 112.09531 
L 388.035 112.09531 
z
" clip-path="url(#p3753762f98)" style="fill: #1f77b4"/>
   </g>
   <g id="patch_12">
    <path d="M 401.76 259.448276 
L 412.74 259.448276 
L 412.74 105.336 
L 401.76 105.336 
z
" clip-path="url(#p3753762f98)" style="fill: #1f77b4"/>
   </g>
   <g id="patch_13">
    <path d="M 415.485 259.448276 
L 426.465 259.448276 
L 426.465 110.743448 
L 415.485 110.743448 
z
" clip-path="url(#p3753762f98)" style="fill: #1f77b4"/>
   </g>
   <g id="patch_14">
    <path d="M 429.21 259.448276 
L 440.19 259.448276 
L 440.19 253.139586 
L 429.21 253.139586 
z
" clip-path="url(#p3753762f98)" style="fill: #1f77b4"/>
   </g>
   <g id="patch_15">
    <path d="M 442.935 259.448276 
L 453.915 259.448276 
L 453.915 240.522207 
L 442.935 240.522207 
z
" clip-path="url(#p3753762f98)" style="fill: #1f77b4"/>
   </g>
   <g id="patch_16">
    <path d="M 456.66 259.448276 
L 467.64 259.448276 
L 467.64 258.547034 
L 456.66 258.547034 
z
" clip-path="url(#p3753762f98)" style="fill: #1f77b4"/>
   </g>
   <g id="patch_17">
    <path d="M 470.385 259.448276 
L 481.365 259.448276 
L 481.365 256.744552 
L 470.385 256.744552 
z
" clip-path="url(#p3753762f98)" style="fill: #1f77b4"/>
   </g>
   <g id="matplotlib.axis_1"/>
   <g id="matplotlib.axis_2">
    <g id="ytick_1">
     <g id="line2d_1">
      <defs>
       <path id="m2e1b72ee47" d="M 0 0 
L -3.5 0 
" style="stroke: #000000"/>
      </defs>
      <g>
       <use xlink:href="#m2e1b72ee47" x="270" y="259.448276" style="stroke: #000000"/>
      </g>
     </g>
     <g id="text_1">
      <!-- 0 -->
      <g transform="translate(256.042188 263.247495)scale(0.1 -0.1)">
       <defs>
        <path id="DejaVuSans-Bold-30" d="M 2944 2338 
Q 2944 3213 2780 3570 
Q 2616 3928 2228 3928 
Q 1841 3928 1675 3570 
Q 1509 3213 1509 2338 
Q 1509 1453 1675 1090 
Q 1841 728 2228 728 
Q 2613 728 2778 1090 
Q 2944 1453 2944 2338 
z
M 4147 2328 
Q 4147 1169 3647 539 
Q 3147 -91 2228 -91 
Q 1306 -91 806 539 
Q 306 1169 306 2328 
Q 306 3491 806 4120 
Q 1306 4750 2228 4750 
Q 3147 4750 3647 4120 
Q 4147 3491 4147 2328 
z
" transform="scale(0.015625)"/>
       </defs>
       <use xlink:href="#DejaVuSans-Bold-30"/>
      </g>
     </g>
    </g>
    <g id="ytick_2">
     <g id="line2d_2">
      <g>
       <use xlink:href="#m2e1b72ee47" x="270" y="214.386207" style="stroke: #000000"/>
      </g>
     </g>
     <g id="text_2">
      <!-- 100 -->
      <g transform="translate(242.126563 218.185426)scale(0.1 -0.1)">
       <defs>
        <path id="DejaVuSans-Bold-31" d="M 750 831 
L 1813 831 
L 1813 3847 
L 722 3622 
L 722 4441 
L 1806 4666 
L 2950 4666 
L 2950 831 
L 4013 831 
L 4013 0 
L 750 0 
L 750 831 
z
" transform="scale(0.015625)"/>
       </defs>
       <use xlink:href="#DejaVuSans-Bold-31"/>
       <use xlink:href="#DejaVuSans-Bold-30" x="69.580078"/>
       <use xlink:href="#DejaVuSans-Bold-30" x="139.160156"/>
      </g>
     </g>
    </g>
    <g id="ytick_3">
     <g id="line2d_3">
      <g>
       <use xlink:href="#m2e1b72ee47" x="270" y="169.324138" style="stroke: #000000"/>
      </g>
     </g>
     <g id="text_3">
      <!-- 200 -->
      <g transform="translate(242.126563 173.123357)scale(0.1 -0.1)">
       <defs>
        <path id="DejaVuSans-Bold-32" d="M 1844 884 
L 3897 884 
L 3897 0 
L 506 0 
L 506 884 
L 2209 2388 
Q 2438 2594 2547 2791 
Q 2656 2988 2656 3200 
Q 2656 3528 2436 3728 
Q 2216 3928 1850 3928 
Q 1569 3928 1234 3808 
Q 900 3688 519 3450 
L 519 4475 
Q 925 4609 1322 4679 
Q 1719 4750 2100 4750 
Q 2938 4750 3402 4381 
Q 3866 4013 3866 3353 
Q 3866 2972 3669 2642 
Q 3472 2313 2841 1759 
L 1844 884 
z
" transform="scale(0.015625)"/>
       </defs>
       <use xlink:href="#DejaVuSans-Bold-32"/>
       <use xlink:href="#DejaVuSans-Bold-30" x="69.580078"/>
       <use xlink:href="#DejaVuSans-Bold-30" x="139.160156"/>
      </g>
     </g>
    </g>
    <g id="ytick_4">
     <g id="line2d_4">
      <g>
       <use xlink:href="#m2e1b72ee47" x="270" y="124.262069" style="stroke: #000000"/>
      </g>
     </g>
     <g id="text_4">
      <!-- 300 -->
      <g transform="translate(242.126563 128.061288)scale(0.1 -0.1)">
       <defs>
        <path id="DejaVuSans-Bold-33" d="M 2981 2516 
Q 3453 2394 3698 2092 
Q 3944 1791 3944 1325 
Q 3944 631 3412 270 
Q 2881 -91 1863 -91 
Q 1503 -91 1142 -33 
Q 781 25 428 141 
L 428 1069 
Q 766 900 1098 814 
Q 1431 728 1753 728 
Q 2231 728 2486 893 
Q 2741 1059 2741 1369 
Q 2741 1688 2480 1852 
Q 2219 2016 1709 2016 
L 1228 2016 
L 1228 2791 
L 1734 2791 
Q 2188 2791 2409 2933 
Q 2631 3075 2631 3366 
Q 2631 3634 2415 3781 
Q 2200 3928 1806 3928 
Q 1516 3928 1219 3862 
Q 922 3797 628 3669 
L 628 4550 
Q 984 4650 1334 4700 
Q 1684 4750 2022 4750 
Q 2931 4750 3382 4451 
Q 3834 4153 3834 3553 
Q 3834 3144 3618 2883 
Q 3403 2622 2981 2516 
z
" transform="scale(0.015625)"/>
       </defs>
       <use xlink:href="#DejaVuSans-Bold-33"/>
       <use xlink:href="#DejaVuSans-Bold-30" x="69.580078"/>
       <use xlink:href="#DejaVuSans-Bold-30" x="139.160156"/>
      </g>
     </g>
    </g>
    <g id="ytick_5">
     <g id="line2d_5">
      <g>
       <use xlink:href="#m2e1b72ee47" x="270" y="79.2" style="stroke: #000000"/>
      </g>
     </g>
     <g id="text_5">
      <!-- 400 -->
      <g transform="translate(242.126563 82.999219)scale(0.1 -0.1)">
       <defs>
        <path id="DejaVuSans-Bold-34" d="M 2356 3675 
L 1038 1722 
L 2356 1722 
L 2356 3675 
z
M 2156 4666 
L 3494 4666 
L 3494 1722 
L 4159 1722 
L 4159 850 
L 3494 850 
L 3494 0 
L 2356 0 
L 2356 850 
L 288 850 
L 288 1881 
L 2156 4666 
z
" transform="scale(0.015625)"/>
       </defs>
       <use xlink:href="#DejaVuSans-Bold-34"/>
       <use xlink:href="#DejaVuSans-Bold-30" x="69.580078"/>
       <use xlink:href="#DejaVuSans-Bold-30" x="139.160156"/>
      </g>
     </g>
    </g>
   </g>
   <g id="patch_18">
    <path d="M 270 259.448276 
L 270 79.2 
" style="fill: none; stroke: #000000; stroke-linejoin: miter; stroke-linecap: square"/>
   </g>
   <g id="patch_19">
    <path d="M 270 259.448276 
L 489.6 259.448276 
" style="fill: none; stroke: #000000; stroke-linejoin: miter; stroke-linecap: square"/>
   </g>
   <g id="text_6">
    <!-- 322 -->
    <g transform="translate(277.99875 110.100601)scale(0.06 -0.06)">
     <defs>
      <path id="DejaVuSans-33" d="M 2597 2516 
Q 3050 2419 3304 2112 
Q 3559 1806 3559 1356 
Q 3559 666 3084 287 
Q 2609 -91 1734 -91 
Q 1441 -91 1130 -33 
Q 819 25 488 141 
L 488 750 
Q 750 597 1062 519 
Q 1375 441 1716 441 
Q 2309 441 2620 675 
Q 2931 909 2931 1356 
Q 2931 1769 2642 2001 
Q 2353 2234 1838 2234 
L 1294 2234 
L 1294 2753 
L 1863 2753 
Q 2328 2753 2575 2939 
Q 2822 3125 2822 3475 
Q 2822 3834 2567 4026 
Q 2313 4219 1838 4219 
Q 1578 4219 1281 4162 
Q 984 4106 628 3988 
L 628 4550 
Q 988 4650 1302 4700 
Q 1616 4750 1894 4750 
Q 2613 4750 3031 4423 
Q 3450 4097 3450 3541 
Q 3450 3153 3228 2886 
Q 3006 2619 2597 2516 
z
" transform="scale(0.015625)"/>
      <path id="DejaVuSans-32" d="M 1228 531 
L 3431 531 
L 3431 0 
L 469 0 
L 469 531 
Q 828 903 1448 1529 
Q 2069 2156 2228 2338 
Q 2531 2678 2651 2914 
Q 2772 3150 2772 3378 
Q 2772 3750 2511 3984 
Q 2250 4219 1831 4219 
Q 1534 4219 1204 4116 
Q 875 4013 500 3803 
L 500 4441 
Q 881 4594 1212 4672 
Q 1544 4750 1819 4750 
Q 2544 4750 2975 4387 
Q 3406 4025 3406 3419 
Q 3406 3131 3298 2873 
Q 3191 2616 2906 2266 
Q 2828 2175 2409 1742 
Q 1991 1309 1228 531 
z
" transform="scale(0.015625)"/>
     </defs>
     <use xlink:href="#DejaVuSans-33"/>
     <use xlink:href="#DejaVuSans-32" x="63.623047"/>
     <use xlink:href="#DejaVuSans-32" x="127.246094"/>
    </g>
   </g>
   <g id="text_7">
    <!-- 326 -->
    <g transform="translate(291.72375 108.298119)scale(0.06 -0.06)">
     <defs>
      <path id="DejaVuSans-36" d="M 2113 2584 
Q 1688 2584 1439 2293 
Q 1191 2003 1191 1497 
Q 1191 994 1439 701 
Q 1688 409 2113 409 
Q 2538 409 2786 701 
Q 3034 994 3034 1497 
Q 3034 2003 2786 2293 
Q 2538 2584 2113 2584 
z
M 3366 4563 
L 3366 3988 
Q 3128 4100 2886 4159 
Q 2644 4219 2406 4219 
Q 1781 4219 1451 3797 
Q 1122 3375 1075 2522 
Q 1259 2794 1537 2939 
Q 1816 3084 2150 3084 
Q 2853 3084 3261 2657 
Q 3669 2231 3669 1497 
Q 3669 778 3244 343 
Q 2819 -91 2113 -91 
Q 1303 -91 875 529 
Q 447 1150 447 2328 
Q 447 3434 972 4092 
Q 1497 4750 2381 4750 
Q 2619 4750 2861 4703 
Q 3103 4656 3366 4563 
z
" transform="scale(0.015625)"/>
     </defs>
     <use xlink:href="#DejaVuSans-33"/>
     <use xlink:href="#DejaVuSans-32" x="63.623047"/>
     <use xlink:href="#DejaVuSans-36" x="127.246094"/>
    </g>
   </g>
   <g id="text_8">
    <!-- 322 -->
    <g transform="translate(305.44875 110.100601)scale(0.06 -0.06)">
     <use xlink:href="#DejaVuSans-33"/>
     <use xlink:href="#DejaVuSans-32" x="63.623047"/>
     <use xlink:href="#DejaVuSans-32" x="127.246094"/>
    </g>
   </g>
   <g id="text_9">
    <!-- 327 -->
    <g transform="translate(319.17375 107.847498)scale(0.06 -0.06)">
     <defs>
      <path id="DejaVuSans-37" d="M 525 4666 
L 3525 4666 
L 3525 4397 
L 1831 0 
L 1172 0 
L 2766 4134 
L 525 4134 
L 525 4666 
z
" transform="scale(0.015625)"/>
     </defs>
     <use xlink:href="#DejaVuSans-33"/>
     <use xlink:href="#DejaVuSans-32" x="63.623047"/>
     <use xlink:href="#DejaVuSans-37" x="127.246094"/>
    </g>
   </g>
   <g id="text_10">
    <!-- 337 -->
    <g transform="translate(332.89875 103.341291)scale(0.06 -0.06)">
     <use xlink:href="#DejaVuSans-33"/>
     <use xlink:href="#DejaVuSans-33" x="63.623047"/>
     <use xlink:href="#DejaVuSans-37" x="127.246094"/>
    </g>
   </g>
   <g id="text_11">
    <!-- 372 -->
    <g transform="translate(346.62375 87.569567)scale(0.06 -0.06)">
     <use xlink:href="#DejaVuSans-33"/>
     <use xlink:href="#DejaVuSans-37" x="63.623047"/>
     <use xlink:href="#DejaVuSans-32" x="127.246094"/>
    </g>
   </g>
   <g id="text_12">
    <!-- 335 -->
    <g transform="translate(360.34875 104.242532)scale(0.06 -0.06)">
     <defs>
      <path id="DejaVuSans-35" d="M 691 4666 
L 3169 4666 
L 3169 4134 
L 1269 4134 
L 1269 2991 
Q 1406 3038 1543 3061 
Q 1681 3084 1819 3084 
Q 2600 3084 3056 2656 
Q 3513 2228 3513 1497 
Q 3513 744 3044 326 
Q 2575 -91 1722 -91 
Q 1428 -91 1123 -41 
Q 819 9 494 109 
L 494 744 
Q 775 591 1075 516 
Q 1375 441 1709 441 
Q 2250 441 2565 725 
Q 2881 1009 2881 1497 
Q 2881 1984 2565 2268 
Q 2250 2553 1709 2553 
Q 1456 2553 1204 2497 
Q 953 2441 691 2322 
L 691 4666 
z
" transform="scale(0.015625)"/>
     </defs>
     <use xlink:href="#DejaVuSans-33"/>
     <use xlink:href="#DejaVuSans-33" x="63.623047"/>
     <use xlink:href="#DejaVuSans-35" x="127.246094"/>
    </g>
   </g>
   <g id="text_13">
    <!-- 342 -->
    <g transform="translate(374.07375 101.088188)scale(0.06 -0.06)">
     <defs>
      <path id="DejaVuSans-34" d="M 2419 4116 
L 825 1625 
L 2419 1625 
L 2419 4116 
z
M 2253 4666 
L 3047 4666 
L 3047 1625 
L 3713 1625 
L 3713 1100 
L 3047 1100 
L 3047 0 
L 2419 0 
L 2419 1100 
L 313 1100 
L 313 1709 
L 2253 4666 
z
" transform="scale(0.015625)"/>
     </defs>
     <use xlink:href="#DejaVuSans-33"/>
     <use xlink:href="#DejaVuSans-34" x="63.623047"/>
     <use xlink:href="#DejaVuSans-32" x="127.246094"/>
    </g>
   </g>
   <g id="text_14">
    <!-- 327 -->
    <g transform="translate(387.79875 107.847498)scale(0.06 -0.06)">
     <use xlink:href="#DejaVuSans-33"/>
     <use xlink:href="#DejaVuSans-32" x="63.623047"/>
     <use xlink:href="#DejaVuSans-37" x="127.246094"/>
    </g>
   </g>
   <g id="text_15">
    <!-- 342 -->
    <g transform="translate(401.52375 101.088188)scale(0.06 -0.06)">
     <use xlink:href="#DejaVuSans-33"/>
     <use xlink:href="#DejaVuSans-34" x="63.623047"/>
     <use xlink:href="#DejaVuSans-32" x="127.246094"/>
    </g>
   </g>
   <g id="text_16">
    <!-- 330 -->
    <g transform="translate(415.24875 106.495636)scale(0.06 -0.06)">
     <defs>
      <path id="DejaVuSans-30" d="M 2034 4250 
Q 1547 4250 1301 3770 
Q 1056 3291 1056 2328 
Q 1056 1369 1301 889 
Q 1547 409 2034 409 
Q 2525 409 2770 889 
Q 3016 1369 3016 2328 
Q 3016 3291 2770 3770 
Q 2525 4250 2034 4250 
z
M 2034 4750 
Q 2819 4750 3233 4129 
Q 3647 3509 3647 2328 
Q 3647 1150 3233 529 
Q 2819 -91 2034 -91 
Q 1250 -91 836 529 
Q 422 1150 422 2328 
Q 422 3509 836 4129 
Q 1250 4750 2034 4750 
z
" transform="scale(0.015625)"/>
     </defs>
     <use xlink:href="#DejaVuSans-33"/>
     <use xlink:href="#DejaVuSans-33" x="63.623047"/>
     <use xlink:href="#DejaVuSans-30" x="127.246094"/>
    </g>
   </g>
   <g id="text_17">
    <!-- 14 -->
    <g transform="translate(430.8825 248.891774)scale(0.06 -0.06)">
     <defs>
      <path id="DejaVuSans-31" d="M 794 531 
L 1825 531 
L 1825 4091 
L 703 3866 
L 703 4441 
L 1819 4666 
L 2450 4666 
L 2450 531 
L 3481 531 
L 3481 0 
L 794 0 
L 794 531 
z
" transform="scale(0.015625)"/>
     </defs>
     <use xlink:href="#DejaVuSans-31"/>
     <use xlink:href="#DejaVuSans-34" x="63.623047"/>
    </g>
   </g>
   <g id="text_18">
    <!-- 42 -->
    <g transform="translate(444.6075 236.274394)scale(0.06 -0.06)">
     <use xlink:href="#DejaVuSans-34"/>
     <use xlink:href="#DejaVuSans-32" x="63.623047"/>
    </g>
   </g>
   <g id="text_19">
    <!-- 2 -->
    <g transform="translate(460.24125 254.299222)scale(0.06 -0.06)">
     <use xlink:href="#DejaVuSans-32"/>
    </g>
   </g>
   <g id="text_20">
    <!-- 6 -->
    <g transform="translate(473.96625 252.496739)scale(0.06 -0.06)">
     <use xlink:href="#DejaVuSans-36"/>
    </g>
   </g>
  </g>
  <g id="axes_2">
   <g id="patch_20">
    <path d="M 270 357.765517 
L 489.6 357.765517 
L 489.6 275.834483 
L 270 275.834483 
z
" style="fill: #ffffff"/>
   </g>
   <g id="PathCollection_1">
    <defs>
     <path id="mf51d1e99d0" d="M 0 3.535534 
C 0.937635 3.535534 1.836992 3.163008 2.5 2.5 
C 3.163008 1.836992 3.535534 0.937635 3.535534 0 
C 3.535534 -0.937635 3.163008 -1.836992 2.5 -2.5 
C 1.836992 -3.163008 0.937635 -3.535534 0 -3.535534 
C -0.937635 -3.535534 -1.836992 -3.163008 -2.5 -2.5 
C -3.163008 -1.836992 -3.535534 -0.937635 -3.535534 0 
C -3.535534 0.937635 -3.163008 1.836992 -2.5 2.5 
C -1.836992 3.163008 -0.937635 3.535534 0 3.535534 
z
" style="stroke: #aec7e8"/>
    </defs>
    <g clip-path="url(#p99e056b516)">
     <use xlink:href="#mf51d1e99d0" x="283.725" y="347.524138" style="fill: #aec7e8; stroke: #aec7e8"/>
     <use xlink:href="#mf51d1e99d0" x="297.45" y="347.524138" style="fill: #aec7e8; stroke: #aec7e8"/>
     <use xlink:href="#mf51d1e99d0" x="311.175" y="347.524138" style="fill: #aec7e8; stroke: #aec7e8"/>
     <use xlink:href="#mf51d1e99d0" x="324.9" y="347.524138" style="fill: #aec7e8; stroke: #aec7e8"/>
     <use xlink:href="#mf51d1e99d0" x="338.625" y="347.524138" style="fill: #aec7e8; stroke: #aec7e8"/>
     <use xlink:href="#mf51d1e99d0" x="352.35" y="347.524138" style="fill: #aec7e8; stroke: #aec7e8"/>
     <use xlink:href="#mf51d1e99d0" x="366.075" y="347.524138" style="fill: #aec7e8; stroke: #aec7e8"/>
     <use xlink:href="#mf51d1e99d0" x="379.8" y="347.524138" style="fill: #aec7e8; stroke: #aec7e8"/>
     <use xlink:href="#mf51d1e99d0" x="393.525" y="347.524138" style="fill: #aec7e8; stroke: #aec7e8"/>
     <use xlink:href="#mf51d1e99d0" x="407.25" y="347.524138" style="fill: #aec7e8; stroke: #aec7e8"/>
     <use xlink:href="#mf51d1e99d0" x="420.975" y="347.524138" style="fill: #aec7e8; stroke: #aec7e8"/>
     <use xlink:href="#mf51d1e99d0" x="434.7" y="347.524138" style="fill: #aec7e8; stroke: #aec7e8"/>
     <use xlink:href="#mf51d1e99d0" x="448.425" y="347.524138" style="fill: #aec7e8; stroke: #aec7e8"/>
     <use xlink:href="#mf51d1e99d0" x="462.15" y="347.524138" style="fill: #aec7e8; stroke: #aec7e8"/>
     <use xlink:href="#mf51d1e99d0" x="475.875" y="347.524138" style="fill: #aec7e8; stroke: #aec7e8"/>
    </g>
   </g>
   <g id="PathCollection_2">
    <g clip-path="url(#p99e056b516)">
     <use xlink:href="#mf51d1e99d0" x="283.725" y="327.041379" style="fill: #aec7e8; stroke: #aec7e8"/>
     <use xlink:href="#mf51d1e99d0" x="297.45" y="327.041379" style="fill: #aec7e8; stroke: #aec7e8"/>
     <use xlink:href="#mf51d1e99d0" x="311.175" y="327.041379" style="fill: #aec7e8; stroke: #aec7e8"/>
     <use xlink:href="#mf51d1e99d0" x="324.9" y="327.041379" style="fill: #aec7e8; stroke: #aec7e8"/>
     <use xlink:href="#mf51d1e99d0" x="338.625" y="327.041379" style="fill: #aec7e8; stroke: #aec7e8"/>
     <use xlink:href="#mf51d1e99d0" x="352.35" y="327.041379" style="fill: #aec7e8; stroke: #aec7e8"/>
     <use xlink:href="#mf51d1e99d0" x="366.075" y="327.041379" style="fill: #aec7e8; stroke: #aec7e8"/>
     <use xlink:href="#mf51d1e99d0" x="379.8" y="327.041379" style="fill: #aec7e8; stroke: #aec7e8"/>
     <use xlink:href="#mf51d1e99d0" x="393.525" y="327.041379" style="fill: #aec7e8; stroke: #aec7e8"/>
     <use xlink:href="#mf51d1e99d0" x="407.25" y="327.041379" style="fill: #aec7e8; stroke: #aec7e8"/>
     <use xlink:href="#mf51d1e99d0" x="420.975" y="327.041379" style="fill: #aec7e8; stroke: #aec7e8"/>
     <use xlink:href="#mf51d1e99d0" x="434.7" y="327.041379" style="fill: #aec7e8; stroke: #aec7e8"/>
     <use xlink:href="#mf51d1e99d0" x="448.425" y="327.041379" style="fill: #aec7e8; stroke: #aec7e8"/>
     <use xlink:href="#mf51d1e99d0" x="462.15" y="327.041379" style="fill: #aec7e8; stroke: #aec7e8"/>
     <use xlink:href="#mf51d1e99d0" x="475.875" y="327.041379" style="fill: #aec7e8; stroke: #aec7e8"/>
    </g>
   </g>
   <g id="PathCollection_3">
    <g clip-path="url(#p99e056b516)">
     <use xlink:href="#mf51d1e99d0" x="283.725" y="306.558621" style="fill: #aec7e8; stroke: #aec7e8"/>
     <use xlink:href="#mf51d1e99d0" x="297.45" y="306.558621" style="fill: #aec7e8; stroke: #aec7e8"/>
     <use xlink:href="#mf51d1e99d0" x="311.175" y="306.558621" style="fill: #aec7e8; stroke: #aec7e8"/>
     <use xlink:href="#mf51d1e99d0" x="324.9" y="306.558621" style="fill: #aec7e8; stroke: #aec7e8"/>
     <use xlink:href="#mf51d1e99d0" x="338.625" y="306.558621" style="fill: #aec7e8; stroke: #aec7e8"/>
     <use xlink:href="#mf51d1e99d0" x="352.35" y="306.558621" style="fill: #aec7e8; stroke: #aec7e8"/>
     <use xlink:href="#mf51d1e99d0" x="366.075" y="306.558621" style="fill: #aec7e8; stroke: #aec7e8"/>
     <use xlink:href="#mf51d1e99d0" x="379.8" y="306.558621" style="fill: #aec7e8; stroke: #aec7e8"/>
     <use xlink:href="#mf51d1e99d0" x="393.525" y="306.558621" style="fill: #aec7e8; stroke: #aec7e8"/>
     <use xlink:href="#mf51d1e99d0" x="407.25" y="306.558621" style="fill: #aec7e8; stroke: #aec7e8"/>
     <use xlink:href="#mf51d1e99d0" x="420.975" y="306.558621" style="fill: #aec7e8; stroke: #aec7e8"/>
     <use xlink:href="#mf51d1e99d0" x="434.7" y="306.558621" style="fill: #aec7e8; stroke: #aec7e8"/>
     <use xlink:href="#mf51d1e99d0" x="448.425" y="306.558621" style="fill: #aec7e8; stroke: #aec7e8"/>
     <use xlink:href="#mf51d1e99d0" x="462.15" y="306.558621" style="fill: #aec7e8; stroke: #aec7e8"/>
     <use xlink:href="#mf51d1e99d0" x="475.875" y="306.558621" style="fill: #aec7e8; stroke: #aec7e8"/>
    </g>
   </g>
   <g id="PathCollection_4">
    <g clip-path="url(#p99e056b516)">
     <use xlink:href="#mf51d1e99d0" x="283.725" y="286.075862" style="fill: #aec7e8; stroke: #aec7e8"/>
     <use xlink:href="#mf51d1e99d0" x="297.45" y="286.075862" style="fill: #aec7e8; stroke: #aec7e8"/>
     <use xlink:href="#mf51d1e99d0" x="311.175" y="286.075862" style="fill: #aec7e8; stroke: #aec7e8"/>
     <use xlink:href="#mf51d1e99d0" x="324.9" y="286.075862" style="fill: #aec7e8; stroke: #aec7e8"/>
     <use xlink:href="#mf51d1e99d0" x="338.625" y="286.075862" style="fill: #aec7e8; stroke: #aec7e8"/>
     <use xlink:href="#mf51d1e99d0" x="352.35" y="286.075862" style="fill: #aec7e8; stroke: #aec7e8"/>
     <use xlink:href="#mf51d1e99d0" x="366.075" y="286.075862" style="fill: #aec7e8; stroke: #aec7e8"/>
     <use xlink:href="#mf51d1e99d0" x="379.8" y="286.075862" style="fill: #aec7e8; stroke: #aec7e8"/>
     <use xlink:href="#mf51d1e99d0" x="393.525" y="286.075862" style="fill: #aec7e8; stroke: #aec7e8"/>
     <use xlink:href="#mf51d1e99d0" x="407.25" y="286.075862" style="fill: #aec7e8; stroke: #aec7e8"/>
     <use xlink:href="#mf51d1e99d0" x="420.975" y="286.075862" style="fill: #aec7e8; stroke: #aec7e8"/>
     <use xlink:href="#mf51d1e99d0" x="434.7" y="286.075862" style="fill: #aec7e8; stroke: #aec7e8"/>
     <use xlink:href="#mf51d1e99d0" x="448.425" y="286.075862" style="fill: #aec7e8; stroke: #aec7e8"/>
     <use xlink:href="#mf51d1e99d0" x="462.15" y="286.075862" style="fill: #aec7e8; stroke: #aec7e8"/>
     <use xlink:href="#mf51d1e99d0" x="475.875" y="286.075862" style="fill: #aec7e8; stroke: #aec7e8"/>
    </g>
   </g>
   <g id="PathCollection_5">
    <defs>
     <path id="mdb82fcbb2d" d="M 0 3.535534 
C 0.937635 3.535534 1.836992 3.163008 2.5 2.5 
C 3.163008 1.836992 3.535534 0.937635 3.535534 0 
C 3.535534 -0.937635 3.163008 -1.836992 2.5 -2.5 
C 1.836992 -3.163008 0.937635 -3.535534 0 -3.535534 
C -0.937635 -3.535534 -1.836992 -3.163008 -2.5 -2.5 
C -3.163008 -1.836992 -3.535534 -0.937635 -3.535534 0 
C -3.535534 0.937635 -3.163008 1.836992 -2.5 2.5 
C -1.836992 3.163008 -0.937635 3.535534 0 3.535534 
z
" style="stroke: #1f77b4"/>
    </defs>
    <g clip-path="url(#p99e056b516)">
     <use xlink:href="#mdb82fcbb2d" x="283.725" y="347.524138" style="fill: #1f77b4; stroke: #1f77b4"/>
     <use xlink:href="#mdb82fcbb2d" x="283.725" y="327.041379" style="fill: #1f77b4; stroke: #1f77b4"/>
     <use xlink:href="#mdb82fcbb2d" x="283.725" y="306.558621" style="fill: #1f77b4; stroke: #1f77b4"/>
     <use xlink:href="#mdb82fcbb2d" x="283.725" y="286.075862" style="fill: #1f77b4; stroke: #1f77b4"/>
    </g>
   </g>
   <g id="PathCollection_6">
    <g clip-path="url(#p99e056b516)">
     <use xlink:href="#mdb82fcbb2d" x="297.45" y="347.524138" style="fill: #1f77b4; stroke: #1f77b4"/>
     <use xlink:href="#mdb82fcbb2d" x="297.45" y="327.041379" style="fill: #1f77b4; stroke: #1f77b4"/>
     <use xlink:href="#mdb82fcbb2d" x="297.45" y="306.558621" style="fill: #1f77b4; stroke: #1f77b4"/>
    </g>
   </g>
   <g id="PathCollection_7">
    <g clip-path="url(#p99e056b516)">
     <use xlink:href="#mdb82fcbb2d" x="311.175" y="327.041379" style="fill: #1f77b4; stroke: #1f77b4"/>
     <use xlink:href="#mdb82fcbb2d" x="311.175" y="306.558621" style="fill: #1f77b4; stroke: #1f77b4"/>
     <use xlink:href="#mdb82fcbb2d" x="311.175" y="286.075862" style="fill: #1f77b4; stroke: #1f77b4"/>
    </g>
   </g>
   <g id="PathCollection_8">
    <g clip-path="url(#p99e056b516)">
     <use xlink:href="#mdb82fcbb2d" x="324.9" y="347.524138" style="fill: #1f77b4; stroke: #1f77b4"/>
     <use xlink:href="#mdb82fcbb2d" x="324.9" y="306.558621" style="fill: #1f77b4; stroke: #1f77b4"/>
     <use xlink:href="#mdb82fcbb2d" x="324.9" y="286.075862" style="fill: #1f77b4; stroke: #1f77b4"/>
    </g>
   </g>
   <g id="PathCollection_9">
    <g clip-path="url(#p99e056b516)">
     <use xlink:href="#mdb82fcbb2d" x="338.625" y="347.524138" style="fill: #1f77b4; stroke: #1f77b4"/>
     <use xlink:href="#mdb82fcbb2d" x="338.625" y="327.041379" style="fill: #1f77b4; stroke: #1f77b4"/>
     <use xlink:href="#mdb82fcbb2d" x="338.625" y="286.075862" style="fill: #1f77b4; stroke: #1f77b4"/>
    </g>
   </g>
   <g id="PathCollection_10">
    <g clip-path="url(#p99e056b516)">
     <use xlink:href="#mdb82fcbb2d" x="352.35" y="347.524138" style="fill: #1f77b4; stroke: #1f77b4"/>
     <use xlink:href="#mdb82fcbb2d" x="352.35" y="327.041379" style="fill: #1f77b4; stroke: #1f77b4"/>
    </g>
   </g>
   <g id="PathCollection_11">
    <g clip-path="url(#p99e056b516)">
     <use xlink:href="#mdb82fcbb2d" x="366.075" y="347.524138" style="fill: #1f77b4; stroke: #1f77b4"/>
     <use xlink:href="#mdb82fcbb2d" x="366.075" y="306.558621" style="fill: #1f77b4; stroke: #1f77b4"/>
    </g>
   </g>
   <g id="PathCollection_12">
    <g clip-path="url(#p99e056b516)">
     <use xlink:href="#mdb82fcbb2d" x="379.8" y="347.524138" style="fill: #1f77b4; stroke: #1f77b4"/>
     <use xlink:href="#mdb82fcbb2d" x="379.8" y="286.075862" style="fill: #1f77b4; stroke: #1f77b4"/>
    </g>
   </g>
   <g id="PathCollection_13">
    <g clip-path="url(#p99e056b516)">
     <use xlink:href="#mdb82fcbb2d" x="393.525" y="327.041379" style="fill: #1f77b4; stroke: #1f77b4"/>
     <use xlink:href="#mdb82fcbb2d" x="393.525" y="306.558621" style="fill: #1f77b4; stroke: #1f77b4"/>
    </g>
   </g>
   <g id="PathCollection_14">
    <g clip-path="url(#p99e056b516)">
     <use xlink:href="#mdb82fcbb2d" x="407.25" y="327.041379" style="fill: #1f77b4; stroke: #1f77b4"/>
     <use xlink:href="#mdb82fcbb2d" x="407.25" y="286.075862" style="fill: #1f77b4; stroke: #1f77b4"/>
    </g>
   </g>
   <g id="PathCollection_15">
    <g clip-path="url(#p99e056b516)">
     <use xlink:href="#mdb82fcbb2d" x="420.975" y="306.558621" style="fill: #1f77b4; stroke: #1f77b4"/>
     <use xlink:href="#mdb82fcbb2d" x="420.975" y="286.075862" style="fill: #1f77b4; stroke: #1f77b4"/>
    </g>
   </g>
   <g id="PathCollection_16">
    <g clip-path="url(#p99e056b516)">
     <use xlink:href="#mdb82fcbb2d" x="434.7" y="347.524138" style="fill: #1f77b4; stroke: #1f77b4"/>
    </g>
   </g>
   <g id="PathCollection_17">
    <g clip-path="url(#p99e056b516)">
     <use xlink:href="#mdb82fcbb2d" x="448.425" y="327.041379" style="fill: #1f77b4; stroke: #1f77b4"/>
    </g>
   </g>
   <g id="PathCollection_18">
    <g clip-path="url(#p99e056b516)">
     <use xlink:href="#mdb82fcbb2d" x="462.15" y="306.558621" style="fill: #1f77b4; stroke: #1f77b4"/>
    </g>
   </g>
   <g id="PathCollection_19">
    <g clip-path="url(#p99e056b516)">
     <use xlink:href="#mdb82fcbb2d" x="475.875" y="286.075862" style="fill: #1f77b4; stroke: #1f77b4"/>
    </g>
   </g>
   <g id="matplotlib.axis_3"/>
   <g id="matplotlib.axis_4"/>
  </g>
  <g id="axes_3">
   <g id="patch_21">
    <path d="M 122.4 357.765517 
L 194.4 357.765517 
L 194.4 275.834483 
L 122.4 275.834483 
z
" style="fill: #ffffff"/>
   </g>
   <g id="patch_22">
    <path d="M 194.4 354.041379 
L 129.910204 354.041379 
L 129.910204 343.400985 
L 194.4 343.400985 
z
" clip-path="url(#pdd3ae47ff6)" style="fill: #1f77b4"/>
   </g>
   <g id="patch_23">
    <path d="M 194.4 332.760591 
L 125.828571 332.760591 
L 125.828571 322.120197 
L 194.4 322.120197 
z
" clip-path="url(#pdd3ae47ff6)" style="fill: #1f77b4"/>
   </g>
   <g id="patch_24">
    <path d="M 194.4 311.479803 
L 138.726531 311.479803 
L 138.726531 300.839409 
L 194.4 300.839409 
z
" clip-path="url(#pdd3ae47ff6)" style="fill: #1f77b4"/>
   </g>
   <g id="patch_25">
    <path d="M 194.4 290.199015 
L 136.277551 290.199015 
L 136.277551 279.558621 
L 194.4 279.558621 
z
" clip-path="url(#pdd3ae47ff6)" style="fill: #1f77b4"/>
   </g>
   <g id="matplotlib.axis_5">
    <g id="xtick_1">
     <g id="line2d_6">
      <defs>
       <path id="m2b07d8ffb2" d="M 0 0 
L 0 3.5 
" style="stroke: #000000"/>
      </defs>
      <g>
       <use xlink:href="#m2b07d8ffb2" x="194.4" y="357.765517" style="stroke: #000000"/>
      </g>
     </g>
     <g id="text_21">
      <!-- 0 -->
      <g transform="translate(190.921094 372.363955)scale(0.1 -0.1)">
       <use xlink:href="#DejaVuSans-Bold-30"/>
      </g>
     </g>
    </g>
    <g id="xtick_2">
     <g id="line2d_7">
      <g>
       <use xlink:href="#m2b07d8ffb2" x="178.073469" y="357.765517" style="stroke: #000000"/>
      </g>
     </g>
    </g>
    <g id="xtick_3">
     <g id="line2d_8">
      <g>
       <use xlink:href="#m2b07d8ffb2" x="161.746939" y="357.765517" style="stroke: #000000"/>
      </g>
     </g>
     <g id="text_22">
      <!-- 200 -->
      <g transform="translate(151.31022 372.363955)scale(0.1 -0.1)">
       <use xlink:href="#DejaVuSans-Bold-32"/>
       <use xlink:href="#DejaVuSans-Bold-30" x="69.580078"/>
       <use xlink:href="#DejaVuSans-Bold-30" x="139.160156"/>
      </g>
     </g>
    </g>
    <g id="xtick_4">
     <g id="line2d_9">
      <g>
       <use xlink:href="#m2b07d8ffb2" x="145.420408" y="357.765517" style="stroke: #000000"/>
      </g>
     </g>
    </g>
    <g id="xtick_5">
     <g id="line2d_10">
      <g>
       <use xlink:href="#m2b07d8ffb2" x="129.093878" y="357.765517" style="stroke: #000000"/>
      </g>
     </g>
     <g id="text_23">
      <!-- 400 -->
      <g transform="translate(118.657159 372.363955)scale(0.1 -0.1)">
       <use xlink:href="#DejaVuSans-Bold-34"/>
       <use xlink:href="#DejaVuSans-Bold-30" x="69.580078"/>
       <use xlink:href="#DejaVuSans-Bold-30" x="139.160156"/>
      </g>
     </g>
    </g>
   </g>
   <g id="matplotlib.axis_6"/>
   <g id="patch_26">
    <path d="M 194.4 357.765517 
L 194.4 275.834483 
" style="fill: none; stroke: #000000; stroke-linejoin: miter; stroke-linecap: square"/>
   </g>
   <g id="patch_27">
    <path d="M 122.4 357.765517 
L 194.4 357.765517 
" style="fill: none; stroke: #000000; stroke-linejoin: miter; stroke-linecap: square"/>
   </g>
   <g id="text_24">
    <!-- 395 -->
    <g transform="translate(113.583673 350.376807)scale(0.06 -0.06)">
     <defs>
      <path id="DejaVuSans-39" d="M 703 97 
L 703 672 
Q 941 559 1184 500 
Q 1428 441 1663 441 
Q 2288 441 2617 861 
Q 2947 1281 2994 2138 
Q 2813 1869 2534 1725 
Q 2256 1581 1919 1581 
Q 1219 1581 811 2004 
Q 403 2428 403 3163 
Q 403 3881 828 4315 
Q 1253 4750 1959 4750 
Q 2769 4750 3195 4129 
Q 3622 3509 3622 2328 
Q 3622 1225 3098 567 
Q 2575 -91 1691 -91 
Q 1453 -91 1209 -44 
Q 966 3 703 97 
z
M 1959 2075 
Q 2384 2075 2632 2365 
Q 2881 2656 2881 3163 
Q 2881 3666 2632 3958 
Q 2384 4250 1959 4250 
Q 1534 4250 1286 3958 
Q 1038 3666 1038 3163 
Q 1038 2656 1286 2365 
Q 1534 2075 1959 2075 
z
" transform="scale(0.015625)"/>
     </defs>
     <use xlink:href="#DejaVuSans-33"/>
     <use xlink:href="#DejaVuSans-39" x="63.623047"/>
     <use xlink:href="#DejaVuSans-35" x="127.246094"/>
    </g>
   </g>
   <g id="text_25">
    <!-- 420 -->
    <g transform="translate(109.502041 329.096019)scale(0.06 -0.06)">
     <use xlink:href="#DejaVuSans-34"/>
     <use xlink:href="#DejaVuSans-32" x="63.623047"/>
     <use xlink:href="#DejaVuSans-30" x="127.246094"/>
    </g>
   </g>
   <g id="text_26">
    <!-- 341 -->
    <g transform="translate(122.4 307.815231)scale(0.06 -0.06)">
     <use xlink:href="#DejaVuSans-33"/>
     <use xlink:href="#DejaVuSans-34" x="63.623047"/>
     <use xlink:href="#DejaVuSans-31" x="127.246094"/>
    </g>
   </g>
   <g id="text_27">
    <!-- 356 -->
    <g transform="translate(119.95102 286.534443)scale(0.06 -0.06)">
     <use xlink:href="#DejaVuSans-33"/>
     <use xlink:href="#DejaVuSans-35" x="63.623047"/>
     <use xlink:href="#DejaVuSans-36" x="127.246094"/>
    </g>
   </g>
  </g>
  <g id="text_28">
   <!-- Intersection -->
   <g transform="translate(133.875078 165.632747)scale(0.13 -0.13)">
    <defs>
     <path id="DejaVuSans-Bold-49" d="M 588 4666 
L 1791 4666 
L 1791 0 
L 588 0 
L 588 4666 
z
" transform="scale(0.015625)"/>
     <path id="DejaVuSans-Bold-6e" d="M 4056 2131 
L 4056 0 
L 2931 0 
L 2931 347 
L 2931 1631 
Q 2931 2084 2911 2256 
Q 2891 2428 2841 2509 
Q 2775 2619 2662 2680 
Q 2550 2741 2406 2741 
Q 2056 2741 1856 2470 
Q 1656 2200 1656 1722 
L 1656 0 
L 538 0 
L 538 3500 
L 1656 3500 
L 1656 2988 
Q 1909 3294 2193 3439 
Q 2478 3584 2822 3584 
Q 3428 3584 3742 3212 
Q 4056 2841 4056 2131 
z
" transform="scale(0.015625)"/>
     <path id="DejaVuSans-Bold-74" d="M 1759 4494 
L 1759 3500 
L 2913 3500 
L 2913 2700 
L 1759 2700 
L 1759 1216 
Q 1759 972 1856 886 
Q 1953 800 2241 800 
L 2816 800 
L 2816 0 
L 1856 0 
Q 1194 0 917 276 
Q 641 553 641 1216 
L 641 2700 
L 84 2700 
L 84 3500 
L 641 3500 
L 641 4494 
L 1759 4494 
z
" transform="scale(0.015625)"/>
     <path id="DejaVuSans-Bold-65" d="M 4031 1759 
L 4031 1441 
L 1416 1441 
Q 1456 1047 1700 850 
Q 1944 653 2381 653 
Q 2734 653 3104 758 
Q 3475 863 3866 1075 
L 3866 213 
Q 3469 63 3072 -14 
Q 2675 -91 2278 -91 
Q 1328 -91 801 392 
Q 275 875 275 1747 
Q 275 2603 792 3093 
Q 1309 3584 2216 3584 
Q 3041 3584 3536 3087 
Q 4031 2591 4031 1759 
z
M 2881 2131 
Q 2881 2450 2695 2645 
Q 2509 2841 2209 2841 
Q 1884 2841 1681 2658 
Q 1478 2475 1428 2131 
L 2881 2131 
z
" transform="scale(0.015625)"/>
     <path id="DejaVuSans-Bold-72" d="M 3138 2547 
Q 2991 2616 2845 2648 
Q 2700 2681 2553 2681 
Q 2122 2681 1889 2404 
Q 1656 2128 1656 1613 
L 1656 0 
L 538 0 
L 538 3500 
L 1656 3500 
L 1656 2925 
Q 1872 3269 2151 3426 
Q 2431 3584 2822 3584 
Q 2878 3584 2943 3579 
Q 3009 3575 3134 3559 
L 3138 2547 
z
" transform="scale(0.015625)"/>
     <path id="DejaVuSans-Bold-73" d="M 3272 3391 
L 3272 2541 
Q 2913 2691 2578 2766 
Q 2244 2841 1947 2841 
Q 1628 2841 1473 2761 
Q 1319 2681 1319 2516 
Q 1319 2381 1436 2309 
Q 1553 2238 1856 2203 
L 2053 2175 
Q 2913 2066 3209 1816 
Q 3506 1566 3506 1031 
Q 3506 472 3093 190 
Q 2681 -91 1863 -91 
Q 1516 -91 1145 -36 
Q 775 19 384 128 
L 384 978 
Q 719 816 1070 734 
Q 1422 653 1784 653 
Q 2113 653 2278 743 
Q 2444 834 2444 1013 
Q 2444 1163 2330 1236 
Q 2216 1309 1875 1350 
L 1678 1375 
Q 931 1469 631 1722 
Q 331 1975 331 2491 
Q 331 3047 712 3315 
Q 1094 3584 1881 3584 
Q 2191 3584 2531 3537 
Q 2872 3491 3272 3391 
z
" transform="scale(0.015625)"/>
     <path id="DejaVuSans-Bold-63" d="M 3366 3391 
L 3366 2478 
Q 3138 2634 2908 2709 
Q 2678 2784 2431 2784 
Q 1963 2784 1702 2511 
Q 1441 2238 1441 1747 
Q 1441 1256 1702 982 
Q 1963 709 2431 709 
Q 2694 709 2930 787 
Q 3166 866 3366 1019 
L 3366 103 
Q 3103 6 2833 -42 
Q 2563 -91 2291 -91 
Q 1344 -91 809 395 
Q 275 881 275 1747 
Q 275 2613 809 3098 
Q 1344 3584 2291 3584 
Q 2566 3584 2833 3536 
Q 3100 3488 3366 3391 
z
" transform="scale(0.015625)"/>
     <path id="DejaVuSans-Bold-69" d="M 538 3500 
L 1656 3500 
L 1656 0 
L 538 0 
L 538 3500 
z
M 538 4863 
L 1656 4863 
L 1656 3950 
L 538 3950 
L 538 4863 
z
" transform="scale(0.015625)"/>
     <path id="DejaVuSans-Bold-6f" d="M 2203 2784 
Q 1831 2784 1636 2517 
Q 1441 2250 1441 1747 
Q 1441 1244 1636 976 
Q 1831 709 2203 709 
Q 2569 709 2762 976 
Q 2956 1244 2956 1747 
Q 2956 2250 2762 2517 
Q 2569 2784 2203 2784 
z
M 2203 3584 
Q 3106 3584 3614 3096 
Q 4122 2609 4122 1747 
Q 4122 884 3614 396 
Q 3106 -91 2203 -91 
Q 1297 -91 786 396 
Q 275 884 275 1747 
Q 275 2609 786 3096 
Q 1297 3584 2203 3584 
z
" transform="scale(0.015625)"/>
    </defs>
    <use xlink:href="#DejaVuSans-Bold-49"/>
    <use xlink:href="#DejaVuSans-Bold-6e" x="37.207031"/>
    <use xlink:href="#DejaVuSans-Bold-74" x="108.398438"/>
    <use xlink:href="#DejaVuSans-Bold-65" x="156.201172"/>
    <use xlink:href="#DejaVuSans-Bold-72" x="224.023438"/>
    <use xlink:href="#DejaVuSans-Bold-73" x="273.339844"/>
    <use xlink:href="#DejaVuSans-Bold-65" x="332.861328"/>
    <use xlink:href="#DejaVuSans-Bold-63" x="400.683594"/>
    <use xlink:href="#DejaVuSans-Bold-74" x="459.960938"/>
    <use xlink:href="#DejaVuSans-Bold-69" x="507.763672"/>
    <use xlink:href="#DejaVuSans-Bold-6f" x="542.041016"/>
    <use xlink:href="#DejaVuSans-Bold-6e" x="610.742188"/>
   </g>
   <!-- Size -->
   <g transform="translate(163.098672 180.189904)scale(0.13 -0.13)">
    <defs>
     <path id="DejaVuSans-Bold-53" d="M 3834 4519 
L 3834 3531 
Q 3450 3703 3084 3790 
Q 2719 3878 2394 3878 
Q 1963 3878 1756 3759 
Q 1550 3641 1550 3391 
Q 1550 3203 1689 3098 
Q 1828 2994 2194 2919 
L 2706 2816 
Q 3484 2659 3812 2340 
Q 4141 2022 4141 1434 
Q 4141 663 3683 286 
Q 3225 -91 2284 -91 
Q 1841 -91 1394 -6 
Q 947 78 500 244 
L 500 1259 
Q 947 1022 1364 901 
Q 1781 781 2169 781 
Q 2563 781 2772 912 
Q 2981 1044 2981 1288 
Q 2981 1506 2839 1625 
Q 2697 1744 2272 1838 
L 1806 1941 
Q 1106 2091 782 2419 
Q 459 2747 459 3303 
Q 459 4000 909 4375 
Q 1359 4750 2203 4750 
Q 2588 4750 2994 4692 
Q 3400 4634 3834 4519 
z
" transform="scale(0.015625)"/>
     <path id="DejaVuSans-Bold-7a" d="M 366 3500 
L 3419 3500 
L 3419 2719 
L 1575 800 
L 3419 800 
L 3419 0 
L 288 0 
L 288 781 
L 2131 2700 
L 366 2700 
L 366 3500 
z
" transform="scale(0.015625)"/>
    </defs>
    <use xlink:href="#DejaVuSans-Bold-53"/>
    <use xlink:href="#DejaVuSans-Bold-69" x="72.021484"/>
    <use xlink:href="#DejaVuSans-Bold-7a" x="106.298828"/>
    <use xlink:href="#DejaVuSans-Bold-65" x="164.501953"/>
   </g>
  </g>
  <g id="text_29">
   <!-- BMIF, Dx -->
   <g transform="translate(212.700938 350.55945)scale(0.11 -0.11)">
    <defs>
     <path id="DejaVuSans-Bold-42" d="M 2456 2859 
Q 2741 2859 2887 2984 
Q 3034 3109 3034 3353 
Q 3034 3594 2887 3720 
Q 2741 3847 2456 3847 
L 1791 3847 
L 1791 2859 
L 2456 2859 
z
M 2497 819 
Q 2859 819 3042 972 
Q 3225 1125 3225 1434 
Q 3225 1738 3044 1889 
Q 2863 2041 2497 2041 
L 1791 2041 
L 1791 819 
L 2497 819 
z
M 3616 2497 
Q 4003 2384 4215 2081 
Q 4428 1778 4428 1338 
Q 4428 663 3972 331 
Q 3516 0 2584 0 
L 588 0 
L 588 4666 
L 2394 4666 
Q 3366 4666 3802 4372 
Q 4238 4078 4238 3431 
Q 4238 3091 4078 2852 
Q 3919 2613 3616 2497 
z
" transform="scale(0.015625)"/>
     <path id="DejaVuSans-Bold-4d" d="M 588 4666 
L 2119 4666 
L 3181 2169 
L 4250 4666 
L 5778 4666 
L 5778 0 
L 4641 0 
L 4641 3413 
L 3566 897 
L 2803 897 
L 1728 3413 
L 1728 0 
L 588 0 
L 588 4666 
z
" transform="scale(0.015625)"/>
     <path id="DejaVuSans-Bold-46" d="M 588 4666 
L 3834 4666 
L 3834 3756 
L 1791 3756 
L 1791 2888 
L 3713 2888 
L 3713 1978 
L 1791 1978 
L 1791 0 
L 588 0 
L 588 4666 
z
" transform="scale(0.015625)"/>
     <path id="DejaVuSans-Bold-2c" d="M 653 1209 
L 1778 1209 
L 1778 256 
L 1006 -909 
L 341 -909 
L 653 256 
L 653 1209 
z
" transform="scale(0.015625)"/>
     <path id="DejaVuSans-Bold-20" transform="scale(0.015625)"/>
     <path id="DejaVuSans-Bold-44" d="M 1791 3756 
L 1791 909 
L 2222 909 
Q 2959 909 3348 1275 
Q 3738 1641 3738 2338 
Q 3738 3031 3350 3393 
Q 2963 3756 2222 3756 
L 1791 3756 
z
M 588 4666 
L 1856 4666 
Q 2919 4666 3439 4514 
Q 3959 4363 4331 4000 
Q 4659 3684 4818 3271 
Q 4978 2859 4978 2338 
Q 4978 1809 4818 1395 
Q 4659 981 4331 666 
Q 3956 303 3431 151 
Q 2906 0 1856 0 
L 588 0 
L 588 4666 
z
" transform="scale(0.015625)"/>
     <path id="DejaVuSans-Bold-78" d="M 1422 1791 
L 159 3500 
L 1344 3500 
L 2059 2463 
L 2784 3500 
L 3969 3500 
L 2706 1797 
L 4031 0 
L 2847 0 
L 2059 1106 
L 1281 0 
L 97 0 
L 1422 1791 
z
" transform="scale(0.015625)"/>
    </defs>
    <use xlink:href="#DejaVuSans-Bold-42"/>
    <use xlink:href="#DejaVuSans-Bold-4d" x="76.220703"/>
    <use xlink:href="#DejaVuSans-Bold-49" x="175.732422"/>
    <use xlink:href="#DejaVuSans-Bold-46" x="212.939453"/>
    <use xlink:href="#DejaVuSans-Bold-2c" x="265.125"/>
    <use xlink:href="#DejaVuSans-Bold-20" x="303.113281"/>
    <use xlink:href="#DejaVuSans-Bold-44" x="337.927734"/>
    <use xlink:href="#DejaVuSans-Bold-78" x="420.935547"/>
   </g>
  </g>
  <g id="text_30">
   <!-- BMIF, D29 -->
   <g transform="translate(208.594844 330.076692)scale(0.11 -0.11)">
    <defs>
     <path id="DejaVuSans-Bold-39" d="M 641 103 
L 641 966 
Q 928 831 1190 764 
Q 1453 697 1709 697 
Q 2247 697 2547 995 
Q 2847 1294 2900 1881 
Q 2688 1725 2447 1647 
Q 2206 1569 1925 1569 
Q 1209 1569 770 1986 
Q 331 2403 331 3084 
Q 331 3838 820 4291 
Q 1309 4744 2131 4744 
Q 3044 4744 3544 4128 
Q 4044 3513 4044 2388 
Q 4044 1231 3459 570 
Q 2875 -91 1856 -91 
Q 1528 -91 1228 -42 
Q 928 6 641 103 
z
M 2125 2350 
Q 2441 2350 2600 2554 
Q 2759 2759 2759 3169 
Q 2759 3575 2600 3781 
Q 2441 3988 2125 3988 
Q 1809 3988 1650 3781 
Q 1491 3575 1491 3169 
Q 1491 2759 1650 2554 
Q 1809 2350 2125 2350 
z
" transform="scale(0.015625)"/>
    </defs>
    <use xlink:href="#DejaVuSans-Bold-42"/>
    <use xlink:href="#DejaVuSans-Bold-4d" x="76.220703"/>
    <use xlink:href="#DejaVuSans-Bold-49" x="175.732422"/>
    <use xlink:href="#DejaVuSans-Bold-46" x="212.939453"/>
    <use xlink:href="#DejaVuSans-Bold-2c" x="265.125"/>
    <use xlink:href="#DejaVuSans-Bold-20" x="303.113281"/>
    <use xlink:href="#DejaVuSans-Bold-44" x="337.927734"/>
    <use xlink:href="#DejaVuSans-Bold-32" x="420.935547"/>
    <use xlink:href="#DejaVuSans-Bold-39" x="490.515625"/>
   </g>
  </g>
  <g id="text_31">
   <!-- PB, Dx -->
   <g transform="translate(219.059453 309.593933)scale(0.11 -0.11)">
    <defs>
     <path id="DejaVuSans-Bold-50" d="M 588 4666 
L 2584 4666 
Q 3475 4666 3951 4270 
Q 4428 3875 4428 3144 
Q 4428 2409 3951 2014 
Q 3475 1619 2584 1619 
L 1791 1619 
L 1791 0 
L 588 0 
L 588 4666 
z
M 1791 3794 
L 1791 2491 
L 2456 2491 
Q 2806 2491 2997 2661 
Q 3188 2831 3188 3144 
Q 3188 3456 2997 3625 
Q 2806 3794 2456 3794 
L 1791 3794 
z
" transform="scale(0.015625)"/>
    </defs>
    <use xlink:href="#DejaVuSans-Bold-50"/>
    <use xlink:href="#DejaVuSans-Bold-42" x="73.291016"/>
    <use xlink:href="#DejaVuSans-Bold-2c" x="149.511719"/>
    <use xlink:href="#DejaVuSans-Bold-20" x="187.5"/>
    <use xlink:href="#DejaVuSans-Bold-44" x="222.314453"/>
    <use xlink:href="#DejaVuSans-Bold-78" x="305.322266"/>
   </g>
  </g>
  <g id="text_32">
   <!-- PB, D29 -->
   <g transform="translate(214.953359 289.111175)scale(0.11 -0.11)">
    <use xlink:href="#DejaVuSans-Bold-50"/>
    <use xlink:href="#DejaVuSans-Bold-42" x="73.291016"/>
    <use xlink:href="#DejaVuSans-Bold-2c" x="149.511719"/>
    <use xlink:href="#DejaVuSans-Bold-20" x="187.5"/>
    <use xlink:href="#DejaVuSans-Bold-44" x="222.314453"/>
    <use xlink:href="#DejaVuSans-Bold-32" x="305.322266"/>
    <use xlink:href="#DejaVuSans-Bold-39" x="374.902344"/>
   </g>
  </g>
  <g id="text_33">
   <!-- Set size -->
   <g transform="translate(129.651719 263.58167)scale(0.13 -0.13)">
    <use xlink:href="#DejaVuSans-Bold-53"/>
    <use xlink:href="#DejaVuSans-Bold-65" x="72.021484"/>
    <use xlink:href="#DejaVuSans-Bold-74" x="139.84375"/>
    <use xlink:href="#DejaVuSans-Bold-20" x="187.646484"/>
    <use xlink:href="#DejaVuSans-Bold-73" x="222.460938"/>
    <use xlink:href="#DejaVuSans-Bold-69" x="281.982422"/>
    <use xlink:href="#DejaVuSans-Bold-7a" x="316.259766"/>
    <use xlink:href="#DejaVuSans-Bold-65" x="374.462891"/>
   </g>
  </g>
 </g>
 <defs>
  <clipPath id="p3753762f98">
   <rect x="270" y="79.2" width="219.6" height="180.248276"/>
  </clipPath>
  <clipPath id="p99e056b516">
   <rect x="270" y="275.834483" width="219.6" height="81.931034"/>
  </clipPath>
  <clipPath id="pdd3ae47ff6">
   <rect x="122.4" y="275.834483" width="72" height="81.931034"/>
  </clipPath>
 </defs>
</svg>
